<svg width="16" height="16" viewBox="0 0 16 16" fill="none" xmlns="http://www.w3.org/2000/svg">
<path d="M10 4.71323C10 4.26656 9.78 3.85323 9.40667 3.60656L6.74 1.82656C6.29333 1.52656 5.70667 1.52656 5.26 1.82656L2.59333 3.60656C2.22667 3.85323 2 4.26656 2 4.71323V8.4999C2 8.68656 2.14667 8.83323 2.33333 8.83323H9.66667C9.85333 8.83323 10 8.68656 10 8.4999V4.71323ZM6 7.16656C5.36 7.16656 4.83333 6.6399 4.83333 5.9999C4.83333 5.3599 5.36 4.83323 6 4.83323C6.64 4.83323 7.16667 5.3599 7.16667 5.9999C7.16667 6.6399 6.64 7.16656 6 7.16656Z" fill="#BC2228"/>
<path d="M14.6666 14.1666H13.8199V12.1666C14.4533 11.9599 14.9133 11.3666 14.9133 10.6666V9.33325C14.9133 8.45992 14.1999 7.74658 13.3266 7.74658C12.4533 7.74658 11.7399 8.45992 11.7399 9.33325V10.6666C11.7399 11.3599 12.1933 11.9466 12.8133 12.1599V14.1666H9.99992V10.1666C9.99992 9.97992 9.85325 9.83325 9.66659 9.83325H2.33325C2.14659 9.83325 1.99992 9.97992 1.99992 10.1666V14.1666H1.33325C1.05992 14.1666 0.833252 14.3932 0.833252 14.6666C0.833252 14.9399 1.05992 15.1666 1.33325 15.1666H13.2866C13.2999 15.1666 13.3066 15.1732 13.3199 15.1732C13.3333 15.1732 13.3399 15.1666 13.3533 15.1666H14.6666C14.9399 15.1666 15.1666 14.9399 15.1666 14.6666C15.1666 14.3932 14.9399 14.1666 14.6666 14.1666ZM5.49992 12.1666C5.49992 11.8932 5.72659 11.6666 5.99992 11.6666C6.27325 11.6666 6.49992 11.8932 6.49992 12.1666V14.1666H5.49992V12.1666Z" fill="#BC2228"/>
</svg>
