<svg width="16" height="16" viewBox="0 0 16 16" fill="none" xmlns="http://www.w3.org/2000/svg">
<path d="M6.31328 10.1867C6.18661 10.1867 6.05995 10.14 5.95995 10.04C5.41328 9.49334 5.11328 8.76667 5.11328 8C5.11328 6.40667 6.40661 5.11333 7.99995 5.11333C8.76661 5.11333 9.49328 5.41333 10.0399 5.96C10.1333 6.05333 10.1866 6.18 10.1866 6.31333C10.1866 6.44667 10.1333 6.57333 10.0399 6.66667L6.66661 10.04C6.56661 10.14 6.43995 10.1867 6.31328 10.1867ZM7.99995 6.11333C6.95995 6.11333 6.11328 6.96 6.11328 8C6.11328 8.33333 6.19995 8.65333 6.35995 8.93333L8.93328 6.36C8.65328 6.2 8.33328 6.11333 7.99995 6.11333Z" fill="#919191"/>
<path d="M3.73335 12.34C3.62002 12.34 3.50002 12.3 3.40668 12.22C2.69335 11.6133 2.05335 10.8667 1.50668 10C0.800018 8.9 0.800018 7.10666 1.50668 6C3.13335 3.45333 5.50002 1.98666 8.00002 1.98666C9.46668 1.98666 10.9134 2.49333 12.18 3.44666C12.4 3.61333 12.4467 3.92666 12.28 4.14666C12.1134 4.36666 11.8 4.41333 11.58 4.24666C10.4867 3.42 9.24669 2.98666 8.00002 2.98666C5.84668 2.98666 3.78668 4.28 2.34668 6.54C1.84668 7.32 1.84668 8.68 2.34668 9.46C2.84668 10.24 3.42002 10.9133 4.05335 11.46C4.26002 11.64 4.28668 11.9533 4.10668 12.1667C4.01335 12.28 3.87335 12.34 3.73335 12.34Z" fill="#919191"/>
<path d="M7.99996 14.0133C7.11329 14.0133 6.24663 13.8333 5.41329 13.48C5.15996 13.3733 5.03996 13.08 5.14663 12.8267C5.25329 12.5733 5.54663 12.4533 5.79996 12.56C6.50663 12.86 7.24663 13.0133 7.99329 13.0133C10.1466 13.0133 12.2066 11.72 13.6466 9.46C14.1466 8.68 14.1466 7.32 13.6466 6.54C13.44 6.21333 13.2133 5.9 12.9733 5.60666C12.8 5.39333 12.8333 5.08 13.0466 4.9C13.26 4.72666 13.5733 4.75333 13.7533 4.97333C14.0133 5.29333 14.2666 5.64 14.4933 6C15.2 7.1 15.2 8.89333 14.4933 10C12.8666 12.5467 10.5 14.0133 7.99996 14.0133Z" fill="#919191"/>
<path d="M8.45997 10.8467C8.22664 10.8467 8.01331 10.68 7.96664 10.44C7.91331 10.1667 8.09331 9.90667 8.36664 9.86C9.09997 9.72667 9.71331 9.11333 9.84664 8.38C9.89997 8.10667 10.16 7.93333 10.4333 7.98C10.7066 8.03333 10.8866 8.29333 10.8333 8.56667C10.62 9.72 9.69997 10.6333 8.55331 10.8467C8.51997 10.84 8.49331 10.8467 8.45997 10.8467Z" fill="#919191"/>
<path d="M1.33329 15.1667C1.20663 15.1667 1.07996 15.12 0.979961 15.02C0.786628 14.8267 0.786628 14.5067 0.979961 14.3133L5.95996 9.33333C6.15329 9.14 6.47329 9.14 6.66663 9.33333C6.85996 9.52666 6.85996 9.84667 6.66663 10.04L1.68663 15.02C1.58663 15.12 1.45996 15.1667 1.33329 15.1667Z" fill="#919191"/>
<path d="M9.68669 6.81333C9.56002 6.81333 9.43335 6.76667 9.33335 6.66667C9.14002 6.47333 9.14002 6.15333 9.33335 5.96L14.3134 0.979999C14.5067 0.786666 14.8267 0.786666 15.02 0.979999C15.2134 1.17333 15.2134 1.49333 15.02 1.68667L10.04 6.66667C9.94002 6.76667 9.81335 6.81333 9.68669 6.81333Z" fill="#919191"/>
</svg>
