<svg width="138" height="33" viewBox="0 0 138 33" fill="none" xmlns="http://www.w3.org/2000/svg">
<g clip-path="url(#clip0_43_16191)">
<path d="M8.87308 14.8006H3.53714V3.59217H8.85357C8.85357 3.59217 14.4724 3.33854 14.4724 8.88909C14.4724 14.3128 9.31205 14.8006 8.87308 14.8006ZM11.3703 16.9076C11.3703 16.9076 18.2183 15.5615 18.2183 8.45987C18.2183 1.34854 11.6142 0.314514 9.57544 0.314514H0.00585938V31.2181H3.53714V17.9221H6.44411C8.08293 17.9221 9.71201 18.1855 11.9751 21.8631L17.4184 31.2083H21.6325L14.9894 20.3219C14.9894 20.3219 13.3896 17.5417 11.3703 16.9076Z" fill="#BC2228"/>
<path d="M27.4063 3.59217V0.314514H23.8555V3.55315" fill="#919191"/>
<path d="M23.8555 4.75308V31.345H27.4063V4.78235" fill="#919191"/>
<path d="M69.791 4.75308H66.25V31.306H69.791V4.75308Z" fill="#919191"/>
<path d="M64.0755 4.70425H49.326V8.30382H64.0755V4.70425Z" fill="#919191"/>
<path d="M64.0755 27.7356H49.326V31.3352H64.0755V27.7356Z" fill="#919191"/>
<path d="M59.2761 16.4296H49.326V20.0389H59.2761V16.4296Z" fill="#919191"/>
<path d="M40.7021 4.75308H37.1318L27.2891 18.0295L37.1318 31.306H40.7021L30.8789 18.0295L40.7021 4.75308Z" fill="#919191"/>
<path d="M43.669 4.75308L33.9629 18.0295L43.669 31.306H47.2101L37.4942 18.0295L47.2101 4.75308H43.669Z" fill="#BC2228"/>
</g>
<path d="M73.9222 30.7991L73.5994 27.8057H74.1195L74.2541 29.1478L74.3169 29.9072C74.3169 29.9602 74.3258 30.075 74.3348 30.2516C74.3976 30.0573 74.4334 29.9161 74.4873 29.8101C74.5231 29.7041 74.5859 29.5629 74.6756 29.3686L75.411 27.8057H75.985L76.0837 29.3068C76.1016 29.5364 76.1106 29.8366 76.1106 30.2163C76.2092 29.9602 76.3707 29.6158 76.5949 29.1655L77.2586 27.8057H77.7877L76.272 30.7991H75.716L75.6083 29.0419C75.5994 28.9359 75.5904 28.724 75.5904 28.4061C75.5097 28.6092 75.42 28.8211 75.3034 29.0595L74.4783 30.8079H73.9222V30.7991Z" fill="#919191"/>
<path d="M77.6718 30.799L78.5596 26.6666H79.0978L78.757 28.256C78.9632 28.0705 79.1426 27.9381 79.304 27.8586C79.4744 27.7703 79.6538 27.735 79.8242 27.735C80.0843 27.735 80.2906 27.7968 80.4341 27.9293C80.5776 28.0617 80.6493 28.2295 80.6493 28.4502C80.6493 28.5562 80.6224 28.7505 80.5597 29.033L80.174 30.799H79.6359L80.0305 28.98C80.0933 28.7151 80.1202 28.5562 80.1202 28.4856C80.1202 28.3884 80.0753 28.309 80.0126 28.2471C79.9408 28.1853 79.8332 28.1588 79.7076 28.1588C79.5193 28.1588 79.3309 28.2118 79.1605 28.3001C78.9901 28.3973 78.8466 28.5297 78.757 28.6975C78.6583 28.8653 78.5686 29.139 78.4879 29.5099L78.2009 30.799H77.6718Z" fill="#919191"/>
<path d="M81.7609 29.033H83.5008C83.5097 28.98 83.5097 28.9447 83.5097 28.9182C83.5097 28.6621 83.438 28.4679 83.3035 28.3266C83.1689 28.1941 82.9985 28.1235 82.7922 28.1235C82.568 28.1235 82.3707 28.203 82.1734 28.3531C81.9851 28.5032 81.8505 28.7328 81.7609 29.033ZM83.2945 29.7747L83.8147 29.8277C83.7429 30.075 83.5725 30.3045 83.2945 30.5341C83.0344 30.7549 82.7205 30.8697 82.3438 30.8697C82.1106 30.8697 81.8954 30.8167 81.707 30.7196C81.5187 30.6224 81.3752 30.4723 81.2676 30.2692C81.1689 30.075 81.1151 29.8454 81.1151 29.5981C81.1151 29.2714 81.1958 28.9535 81.3483 28.6445C81.5097 28.3354 81.716 28.1058 81.9671 27.9557C82.2093 27.8056 82.4783 27.735 82.7743 27.735C83.151 27.735 83.438 27.8498 83.6622 28.0705C83.8864 28.2913 83.994 28.5915 83.994 28.98C83.994 29.1301 83.9851 29.2803 83.9582 29.4304H81.6712C81.6622 29.4922 81.6622 29.5452 81.6622 29.5893C81.6622 29.8719 81.725 30.0838 81.8685 30.2339C82.003 30.384 82.1644 30.4547 82.3528 30.4547C82.5322 30.4547 82.7205 30.3928 82.8909 30.2781C83.0613 30.1633 83.1958 29.9955 83.2945 29.7747Z" fill="#919191"/>
<path d="M84.3534 30.799L85.0081 27.8056H85.4745L85.3399 28.4149C85.5014 28.1853 85.6538 28.0087 85.8153 27.9028C85.9677 27.788 86.1202 27.735 86.2816 27.735C86.3893 27.735 86.5148 27.7703 86.6763 27.8409L86.4521 28.3178C86.3624 28.256 86.2637 28.2206 86.1471 28.2206C85.9677 28.2206 85.7704 28.3178 85.5821 28.5209C85.3938 28.724 85.2234 29.0772 85.1157 29.5981L84.8556 30.799H84.3534Z" fill="#919191"/>
<path d="M87.0964 29.033H88.8363C88.8453 28.98 88.8453 28.9447 88.8453 28.9182C88.8453 28.6621 88.7736 28.4679 88.639 28.3266C88.5045 28.1941 88.3341 28.1235 88.1189 28.1235C87.8946 28.1235 87.6973 28.203 87.5 28.3531C87.3296 28.5032 87.1861 28.7328 87.0964 29.033ZM88.639 29.7747L89.1592 29.8277C89.0875 30.075 88.9171 30.3045 88.639 30.5341C88.3789 30.7549 88.065 30.8697 87.6884 30.8697C87.4552 30.8697 87.2399 30.8167 87.0516 30.7196C86.8632 30.6224 86.7197 30.4723 86.6211 30.2692C86.5224 30.075 86.4686 29.8454 86.4686 29.5981C86.4686 29.2714 86.5493 28.9535 86.7018 28.6445C86.8632 28.3354 87.0695 28.1058 87.3206 27.9557C87.5628 27.8056 87.8319 27.735 88.1278 27.735C88.5045 27.735 88.7915 27.8498 89.0157 28.0705C89.2399 28.2913 89.3476 28.5915 89.3476 28.98C89.3476 29.1301 89.3386 29.2803 89.3117 29.4304H87.0067C86.9978 29.4922 86.9978 29.5452 86.9978 29.5893C86.9978 29.8719 87.0606 30.0838 87.2041 30.2339C87.3386 30.384 87.5 30.4547 87.6884 30.4547C87.8677 30.4547 88.0561 30.3928 88.2265 30.2781C88.4059 30.1633 88.5314 29.9955 88.639 29.7747Z" fill="#919191"/>
<path d="M92.603 30.384L92.5133 30.799C92.3878 30.8344 92.2622 30.8432 92.1456 30.8432C91.9304 30.8432 91.76 30.7902 91.6434 30.6931C91.5537 30.6224 91.4999 30.5165 91.4999 30.384C91.4999 30.3222 91.5178 30.1633 91.5716 29.9249L91.9573 28.1853H91.5358L91.6254 27.788H92.038L92.1994 27.0551L92.8093 26.7019L92.5761 27.788H93.0873L93.0066 28.1853H92.4775L92.1187 29.8366C92.0649 30.0485 92.047 30.1721 92.047 30.2162C92.047 30.2781 92.0649 30.3222 92.1008 30.3575C92.1456 30.3929 92.1994 30.4017 92.2801 30.4017C92.4147 30.4193 92.5133 30.4017 92.603 30.384Z" fill="#919191"/>
<path d="M93.0253 30.799L93.9221 26.6666H94.4603L94.1194 28.256C94.3078 28.0705 94.4961 27.9381 94.6665 27.8586C94.8369 27.7792 95.0073 27.735 95.1957 27.735C95.4558 27.735 95.6531 27.7968 95.8055 27.9293C95.949 28.0617 96.0208 28.2295 96.0208 28.4502C96.0208 28.5562 95.9939 28.7505 95.9221 29.033L95.5365 30.799H95.0073L95.402 28.98C95.4647 28.7151 95.4827 28.5562 95.4827 28.4856C95.4827 28.3884 95.4558 28.309 95.384 28.2471C95.3123 28.1853 95.2136 28.15 95.0791 28.15C94.8907 28.15 94.7024 28.203 94.532 28.2913C94.3526 28.3884 94.2181 28.5209 94.1194 28.6887C94.0298 28.8564 93.9401 29.1302 93.8504 29.501L93.5813 30.7902H93.0253V30.799Z" fill="#919191"/>
<path d="M97.1158 29.033H98.8647C98.8647 28.98 98.8737 28.9447 98.8737 28.9182C98.8737 28.6621 98.8019 28.4679 98.6674 28.3266C98.5329 28.1941 98.3625 28.1235 98.1472 28.1235C97.923 28.1235 97.7078 28.203 97.5284 28.3531C97.349 28.5032 97.2055 28.7328 97.1158 29.033ZM98.6674 29.7747L99.1786 29.8277C99.0979 30.075 98.9365 30.3045 98.6674 30.5341C98.4073 30.7549 98.0845 30.8697 97.7167 30.8697C97.4836 30.8697 97.2683 30.8167 97.08 30.7196C96.8916 30.6224 96.7392 30.4723 96.6315 30.2692C96.5329 30.075 96.488 29.8454 96.488 29.5981C96.488 29.2714 96.5598 28.9535 96.7212 28.6445C96.8827 28.3354 97.0889 28.1058 97.3311 27.9557C97.5822 27.8056 97.8602 27.735 98.1472 27.735C98.5149 27.735 98.8109 27.8498 99.0351 28.0705C99.2593 28.2913 99.367 28.5915 99.367 28.98C99.367 29.1301 99.349 29.2803 99.3311 29.4304H97.0351C97.0262 29.4922 97.0262 29.5452 97.0262 29.5893C97.0262 29.8719 97.0889 30.0838 97.2145 30.2339C97.358 30.384 97.5194 30.4547 97.7078 30.4547C97.8871 30.4547 98.0755 30.3928 98.2459 30.2781C98.4342 30.1633 98.5598 29.9955 98.6674 29.7747Z" fill="#919191"/>
<path d="M102.03 29.5452C102.03 29.7571 102.048 29.916 102.093 30.0397C102.137 30.1633 102.218 30.2604 102.317 30.3399C102.415 30.4194 102.541 30.4635 102.694 30.4635C102.927 30.4635 103.151 30.3399 103.339 30.1015C103.599 29.7836 103.734 29.3862 103.734 28.9182C103.734 28.6798 103.671 28.4944 103.546 28.3619C103.411 28.2295 103.25 28.1588 103.061 28.1588C102.927 28.1588 102.819 28.1853 102.72 28.2383C102.613 28.2913 102.505 28.3884 102.407 28.5121C102.308 28.6445 102.218 28.8123 102.146 29.0065C102.066 29.2096 102.03 29.3862 102.03 29.5452ZM103.492 30.3664C103.187 30.7019 102.864 30.8697 102.541 30.8697C102.245 30.8697 101.994 30.7637 101.806 30.5518C101.599 30.3399 101.51 30.0397 101.51 29.6423C101.51 29.2803 101.581 28.9447 101.743 28.6445C101.895 28.3443 102.084 28.1147 102.317 27.9646C102.55 27.8145 102.792 27.735 103.025 27.735C103.411 27.735 103.707 27.9116 103.904 28.2736L104.245 26.6666H104.783L103.886 30.799H103.393L103.492 30.3664Z" fill="#919191"/>
<path d="M104.721 30.799L105.375 27.8056H105.842L105.707 28.4149C105.869 28.1853 106.021 28.0087 106.182 27.9028C106.335 27.788 106.487 27.735 106.649 27.735C106.756 27.735 106.882 27.7703 107.043 27.8409L106.819 28.3178C106.73 28.256 106.631 28.2206 106.514 28.2206C106.335 28.2206 106.138 28.3178 105.949 28.5209C105.761 28.724 105.6 29.0772 105.483 29.5981L105.223 30.799H104.721Z" fill="#919191"/>
<path d="M107.473 29.033H109.222V28.9182C109.222 28.6621 109.151 28.4679 109.016 28.3266C108.881 28.1941 108.711 28.1235 108.496 28.1235C108.272 28.1235 108.074 28.203 107.877 28.3531C107.707 28.5032 107.563 28.7328 107.473 29.033ZM109.007 29.7747L109.527 29.8277C109.455 30.075 109.285 30.3045 109.025 30.5341C108.756 30.7549 108.442 30.8697 108.065 30.8697C107.832 30.8697 107.617 30.8167 107.429 30.7196C107.24 30.6224 107.097 30.4723 106.998 30.2692C106.899 30.075 106.846 29.8454 106.846 29.5981C106.846 29.2714 106.926 28.9535 107.088 28.6445C107.24 28.3354 107.438 28.1058 107.698 27.9557C107.949 27.8056 108.218 27.735 108.505 27.735C108.881 27.735 109.168 27.8498 109.393 28.0705C109.617 28.2913 109.725 28.5915 109.725 28.98C109.725 29.1301 109.716 29.2803 109.689 29.4304H107.393C107.393 29.4922 107.384 29.5452 107.384 29.5893C107.384 29.8719 107.455 30.0838 107.59 30.2339C107.725 30.384 107.886 30.4547 108.083 30.4547C108.263 30.4547 108.433 30.3928 108.621 30.2781C108.774 30.1633 108.917 29.9955 109.007 29.7747Z" fill="#919191"/>
<path d="M112.362 29.2803C112.29 29.3068 112.209 29.3333 112.129 29.3421C112.039 29.3598 111.895 29.3686 111.707 29.3863C111.393 29.4128 111.169 29.4481 111.052 29.4834C110.918 29.5276 110.828 29.5894 110.756 29.6777C110.694 29.766 110.667 29.8631 110.667 29.9691C110.667 30.1104 110.72 30.2252 110.819 30.3223C110.918 30.4194 111.07 30.4636 111.25 30.4636C111.429 30.4636 111.59 30.4194 111.77 30.3311C111.931 30.2428 112.057 30.1192 112.155 29.9603C112.236 29.8013 112.308 29.5717 112.362 29.2803ZM112.164 30.4282C111.985 30.5784 111.797 30.6931 111.635 30.7638C111.465 30.8344 111.277 30.8697 111.088 30.8697C110.792 30.8697 110.559 30.7903 110.389 30.6225C110.209 30.4547 110.129 30.2516 110.129 29.9956C110.129 29.8278 110.173 29.6777 110.236 29.5541C110.317 29.4216 110.425 29.3245 110.559 29.245C110.694 29.1655 110.846 29.1126 111.034 29.0772C111.16 29.0508 111.375 29.0331 111.716 29.0243C112.048 29.0154 112.29 28.9801 112.433 28.9271C112.478 28.7858 112.496 28.6711 112.496 28.5828C112.496 28.468 112.451 28.3708 112.362 28.3002C112.236 28.2031 112.057 28.1589 111.824 28.1589C111.599 28.1589 111.42 28.2031 111.277 28.3002C111.124 28.3973 111.025 28.5298 110.963 28.7064L110.425 28.6622C110.532 28.362 110.712 28.1324 110.936 27.9823C111.178 27.8234 111.483 27.7439 111.833 27.7439C112.218 27.7439 112.532 27.8322 112.756 28.0088C112.927 28.1412 113.007 28.309 113.007 28.5209C113.007 28.6799 112.99 28.8653 112.936 29.0772L112.765 29.819C112.712 30.0574 112.685 30.2516 112.685 30.3929C112.685 30.4901 112.703 30.6225 112.747 30.7991H112.209C112.2 30.702 112.173 30.5784 112.164 30.4282Z" fill="#919191"/>
<path d="M113.402 30.799L114.057 27.8056H114.586L114.487 28.3001C114.676 28.0882 114.855 27.9381 115.017 27.8586C115.169 27.7791 115.339 27.735 115.519 27.735C115.707 27.735 115.869 27.788 116.003 27.8851C116.138 27.9822 116.218 28.1235 116.254 28.3001C116.416 28.1147 116.577 27.9734 116.756 27.8763C116.927 27.788 117.106 27.735 117.304 27.735C117.564 27.735 117.761 27.7968 117.887 27.9116C118.021 28.0264 118.093 28.1942 118.093 28.4149C118.093 28.5032 118.066 28.6621 118.021 28.8741L117.6 30.8079H117.07L117.501 28.8211C117.546 28.6621 117.564 28.5474 117.564 28.4767C117.564 28.3796 117.537 28.3001 117.465 28.2471C117.402 28.1853 117.313 28.1588 117.196 28.1588C117.043 28.1588 116.882 28.203 116.712 28.3001C116.55 28.3884 116.416 28.512 116.335 28.6621C116.245 28.8123 116.165 29.0418 116.093 29.3509L115.779 30.799H115.241L115.689 28.7769C115.716 28.6357 115.725 28.5385 115.725 28.4855C115.725 28.3884 115.698 28.3089 115.635 28.2471C115.573 28.1853 115.483 28.1588 115.384 28.1588C115.232 28.1588 115.079 28.203 114.918 28.3001C114.748 28.3972 114.613 28.5209 114.514 28.6886C114.416 28.8564 114.326 29.086 114.263 29.395L113.949 30.8079L113.402 30.799Z" fill="#919191"/>
<path d="M120.863 29.5628V29.66C120.863 29.916 120.926 30.1103 121.052 30.2428C121.177 30.3752 121.339 30.4458 121.527 30.4458C121.706 30.4458 121.877 30.384 122.029 30.2604C122.191 30.1368 122.316 29.9425 122.415 29.6776C122.514 29.4127 122.567 29.1655 122.567 28.9447C122.567 28.6975 122.505 28.4944 122.379 28.3619C122.253 28.2207 122.092 28.15 121.913 28.15C121.724 28.15 121.545 28.2207 121.384 28.3619C121.222 28.5032 121.088 28.724 120.98 29.0154C120.908 29.2361 120.863 29.4216 120.863 29.5628ZM120.074 30.799L120.971 26.6666H121.509L121.186 28.1412C121.357 27.9911 121.509 27.8851 121.644 27.8233C121.787 27.7615 121.931 27.735 122.083 27.735C122.37 27.735 122.612 27.841 122.81 28.0529C122.998 28.2648 123.105 28.565 123.105 28.9624C123.105 29.2273 123.07 29.4745 122.98 29.6865C122.899 29.9072 122.81 30.0926 122.684 30.2428C122.576 30.3929 122.451 30.5077 122.334 30.6048C122.209 30.6931 122.083 30.7637 121.958 30.8079C121.823 30.852 121.697 30.8697 121.581 30.8697C121.366 30.8697 121.195 30.8167 121.034 30.7107C120.881 30.6048 120.747 30.4458 120.666 30.2339L120.549 30.799H120.074Z" fill="#919191"/>
<path d="M124.165 29.033H125.914C125.923 28.98 125.923 28.9447 125.923 28.9182C125.923 28.6621 125.851 28.4679 125.716 28.3266C125.582 28.1941 125.411 28.1235 125.205 28.1235C124.981 28.1235 124.775 28.203 124.586 28.3531C124.398 28.5032 124.254 28.7328 124.165 29.033ZM125.716 29.7747L126.237 29.8277C126.165 30.075 125.994 30.3045 125.716 30.5341C125.456 30.7549 125.142 30.8697 124.766 30.8697C124.533 30.8697 124.317 30.8167 124.129 30.7196C123.941 30.6224 123.797 30.4723 123.689 30.2692C123.591 30.075 123.537 29.8454 123.537 29.5981C123.537 29.2714 123.618 28.9535 123.77 28.6445C123.932 28.3354 124.138 28.1058 124.389 27.9557C124.631 27.8056 124.9 27.735 125.196 27.735C125.573 27.735 125.869 27.8498 126.084 28.0705C126.308 28.2913 126.416 28.5915 126.416 28.98C126.416 29.1301 126.398 29.2803 126.38 29.4304H124.084C124.075 29.4922 124.075 29.5452 124.075 29.5893C124.075 29.8719 124.138 30.0838 124.281 30.2339C124.416 30.384 124.577 30.4547 124.766 30.4547C124.945 30.4547 125.133 30.3928 125.304 30.2781C125.483 30.1633 125.609 29.9955 125.716 29.7747Z" fill="#919191"/>
<path d="M127.402 29.4745C127.402 29.6776 127.42 29.8365 127.464 29.9337C127.527 30.075 127.608 30.1897 127.716 30.2692C127.814 30.3487 127.94 30.384 128.074 30.384C128.254 30.384 128.424 30.3222 128.603 30.2074C128.774 30.0926 128.917 29.9072 129.016 29.6599C129.124 29.4127 129.177 29.1743 129.177 28.9535C129.177 28.7063 129.106 28.512 128.962 28.3619C128.819 28.2206 128.639 28.1412 128.433 28.1412C128.298 28.1412 128.182 28.1765 128.056 28.2383C127.931 28.3089 127.823 28.4061 127.716 28.5474C127.617 28.6798 127.536 28.8476 127.482 29.033C127.42 29.2273 127.402 29.3774 127.402 29.4745ZM126.738 31.0728L127.276 31.1169C127.276 31.2317 127.285 31.32 127.321 31.3818C127.366 31.4436 127.411 31.4878 127.482 31.5143C127.581 31.5584 127.707 31.5761 127.859 31.5761C128.182 31.5761 128.415 31.4966 128.55 31.3377C128.648 31.2317 128.729 30.9933 128.81 30.6401L128.864 30.3928C128.594 30.6666 128.298 30.799 127.985 30.799C127.671 30.799 127.411 30.6842 127.195 30.4635C126.98 30.2427 126.872 29.9248 126.872 29.5187C126.872 29.1831 126.962 28.8741 127.124 28.5915C127.294 28.3089 127.491 28.097 127.724 27.9557C127.958 27.8145 128.191 27.735 128.442 27.735C128.846 27.735 129.159 27.9204 129.384 28.2913L129.482 27.7968H129.967L129.339 30.6931C129.276 31.0109 129.186 31.2582 129.079 31.4348C128.971 31.6114 128.81 31.7527 128.612 31.8498C128.406 31.9469 128.191 31.9999 127.922 31.9999C127.671 31.9999 127.455 31.9734 127.276 31.9028C127.097 31.841 126.962 31.7527 126.872 31.6291C126.783 31.5054 126.738 31.373 126.738 31.214C126.72 31.1699 126.72 31.1257 126.738 31.0728Z" fill="#919191"/>
<path d="M130.864 27.2405L130.989 26.6666H131.528L131.393 27.2405H130.864ZM130.084 30.799L130.738 27.8056H131.267L130.622 30.799H130.084Z" fill="#919191"/>
<path d="M131.437 30.799L132.092 27.8056H132.567L132.46 28.3266C132.675 28.1235 132.863 27.9734 133.043 27.8763C133.222 27.7791 133.41 27.735 133.599 27.735C133.85 27.735 134.056 27.8056 134.2 27.9292C134.343 28.0617 134.415 28.2383 134.415 28.4591C134.415 28.565 134.397 28.7416 134.343 28.98L133.949 30.799H133.41L133.823 28.9006C133.868 28.7151 133.886 28.5827 133.886 28.4944C133.886 28.3972 133.859 28.3178 133.787 28.2471C133.715 28.1853 133.608 28.15 133.473 28.15C133.204 28.15 132.953 28.2471 132.747 28.4326C132.532 28.618 132.379 28.9447 132.28 29.4039L131.975 30.799H131.437Z" fill="#919191"/>
<path d="M134.838 29.7748L135.367 29.7483C135.367 29.8985 135.385 30.0221 135.439 30.1192C135.492 30.2252 135.573 30.3046 135.699 30.3753C135.824 30.4459 135.968 30.4724 136.138 30.4724C136.371 30.4724 136.551 30.4283 136.667 30.34C136.793 30.2517 136.847 30.1457 136.847 30.0221C136.847 29.9338 136.811 29.8455 136.739 29.766C136.667 29.6865 136.497 29.5894 136.21 29.4746C135.923 29.3598 135.752 29.2804 135.672 29.2274C135.537 29.1479 135.439 29.0596 135.376 28.9536C135.304 28.8477 135.277 28.7329 135.277 28.5916C135.277 28.3532 135.367 28.1501 135.573 27.9823C135.761 27.8146 136.039 27.7263 136.389 27.7263C136.784 27.7263 137.08 27.8146 137.277 27.9912C137.483 28.1678 137.591 28.3973 137.6 28.6799L137.071 28.7152C137.071 28.5298 136.999 28.3885 136.882 28.2914C136.748 28.1854 136.578 28.1324 136.344 28.1324C136.165 28.1324 136.021 28.1766 135.923 28.2561C135.824 28.3355 135.77 28.4238 135.77 28.521C135.77 28.6181 135.806 28.6976 135.905 28.7682C135.968 28.8212 136.12 28.8918 136.362 28.9978C136.766 29.1656 137.017 29.298 137.134 29.3951C137.295 29.5541 137.385 29.7395 137.385 29.9603C137.385 30.1104 137.331 30.2517 137.241 30.3929C137.143 30.5342 136.999 30.649 136.811 30.7373C136.604 30.8256 136.389 30.8698 136.12 30.8698C135.752 30.8698 135.456 30.7815 135.196 30.6137C134.936 30.4371 134.82 30.1634 134.838 29.7748Z" fill="#919191"/>
<path d="M80.0789 25.5999C76.1112 25.5999 73.793 23.2296 73.6147 19.8849L73.5999 19.7104H76.884L76.8988 19.8412C77.0326 21.4409 78.0579 22.6915 80.0492 22.6915C82.2485 22.6915 83.4374 21.4118 83.4374 19.0123V4.2666H86.7661V19.0414C86.7661 23.1714 84.2844 25.5999 80.0789 25.5999Z" fill="#BC2228"/>
<path d="M97.094 25.5563C92.6062 25.5563 89.6787 22.517 89.6787 17.6018V17.5727C89.6787 12.6865 92.6359 9.66174 97.0791 9.66174C101.537 9.66174 104.509 12.672 104.509 17.5727V17.6018C104.509 22.5315 101.567 25.5563 97.094 25.5563ZM97.1088 22.9242C99.6202 22.9242 101.225 20.9755 101.225 17.6018V17.5727C101.225 14.228 99.5905 12.2939 97.0791 12.2939C94.6123 12.2939 92.9628 14.228 92.9628 17.5727V17.6018C92.9628 20.9901 94.5974 22.9242 97.1088 22.9242Z" fill="#BC2228"/>
<path d="M115.298 25.5563C113.054 25.5563 111.315 24.4511 110.394 22.6624H110.32V25.2509H107.11V4.2666H110.32V12.5556H110.394C111.33 10.7524 113.113 9.66174 115.328 9.66174C119.251 9.66174 121.836 12.7156 121.836 17.5872V17.6018C121.836 22.4734 119.266 25.5563 115.298 25.5563ZM114.451 22.8515C116.977 22.8515 118.552 20.8592 118.552 17.6018V17.5872C118.552 14.3589 116.977 12.352 114.451 12.352C112.029 12.352 110.305 14.417 110.305 17.5872V17.6018C110.305 20.7865 112.014 22.8515 114.451 22.8515Z" fill="#BC2228"/>
<path d="M130.173 25.5563C126.265 25.5563 123.976 23.6658 123.649 20.8737L123.634 20.7429H126.815L126.844 20.8883C127.141 22.2989 128.211 23.1278 130.188 23.1278C132.12 23.1278 133.279 22.3425 133.279 21.1064V21.0919C133.279 20.103 132.714 19.5359 131.035 19.1432L128.479 18.5761C125.507 17.9071 124.036 16.5111 124.036 14.2861V14.2716C124.036 11.5377 126.473 9.66174 130.069 9.66174C133.769 9.66174 135.998 11.6831 136.162 14.2861L136.177 14.4606H133.16L133.145 14.3589C132.952 13.021 131.882 12.0903 130.069 12.0903C128.345 12.0903 127.26 12.8901 127.26 14.1116V14.1262C127.26 15.0714 127.899 15.7113 129.579 16.1039L132.12 16.6711C135.315 17.3982 136.533 18.6342 136.533 20.8301V20.8447C136.533 23.6367 133.858 25.5563 130.173 25.5563Z" fill="#BC2228"/>
<defs>
<clipPath id="clip0_43_16191">
<rect width="70.4" height="32" fill="white"/>
</clipPath>
</defs>
</svg>
