<svg width="203" height="48" viewBox="0 0 203 48" fill="none" xmlns="http://www.w3.org/2000/svg">
<path d="M13.0516 21.7718H5.20239V5.2841H13.0229C13.0229 5.2841 21.2883 4.91101 21.2883 13.0759C21.2883 21.0543 13.6974 21.7718 13.0516 21.7718ZM16.7251 24.8713C16.7251 24.8713 26.7986 22.8911 26.7986 12.4446C26.7986 1.98369 17.0839 0.462626 14.0848 0.462626H0.00782455V45.9222H5.20239V26.3637H9.47858C11.8893 26.3637 14.2857 26.7511 17.6148 32.161L25.6219 45.9079H31.821L22.0489 29.8937C22.0489 29.8937 19.6955 25.8041 16.7251 24.8713Z" fill="white"/>
<path d="M40.3163 5.2841V0.462626H35.0931V5.2267" fill="white"/>
<path d="M35.0931 6.99196V46.109H40.3163V7.03501" fill="white"/>
<path d="M102.665 6.99196H97.4562V46.0517H102.665V6.99196Z" fill="white"/>
<path d="M94.2561 6.92008H72.5595V12.2151H94.2561V6.92008Z" fill="white"/>
<path d="M94.2561 40.7994H72.5595V46.0944H94.2561V40.7994Z" fill="white"/>
<path d="M87.1961 24.1683H72.5595V29.4777H87.1961V24.1683Z" fill="white"/>
<path d="M59.8748 6.99196H54.6229L40.1441 26.5218L54.6229 46.0517H59.8748L45.4247 26.5218L59.8748 6.99196Z" fill="white"/>
<path d="M64.2371 6.99196L49.9592 26.5218L64.2371 46.0517H69.446L55.1538 26.5218L69.446 6.99196H64.2371Z" fill="white"/>
<path d="M108.742 45.3061L108.267 40.9028H109.032L109.23 42.8772L109.322 43.9942C109.322 44.0722 109.335 44.241 109.349 44.5008C109.441 44.2151 109.494 44.0072 109.573 43.8514C109.626 43.6955 109.718 43.4877 109.85 43.2019L110.932 40.9028H111.776L111.921 43.111C111.948 43.4487 111.961 43.8903 111.961 44.4489C112.106 44.0722 112.343 43.5656 112.673 42.9031L113.65 40.9028H114.428L112.198 45.3061H111.38L111.222 42.7213C111.209 42.5654 111.196 42.2537 111.196 41.7861C111.077 42.0848 110.945 42.3966 110.773 42.7473L109.56 45.3191H108.742V45.3061Z" fill="white"/>
<path d="M114.256 45.3061L115.563 39.2271H116.354L115.853 41.5652C116.156 41.2924 116.42 41.0976 116.658 40.9807C116.908 40.8508 117.172 40.7988 117.423 40.7988C117.805 40.7988 118.109 40.8897 118.32 41.0846C118.531 41.2794 118.637 41.5262 118.637 41.8509C118.637 42.0068 118.597 42.2926 118.505 42.7082L117.937 45.3061H117.146L117.726 42.6303C117.819 42.2406 117.858 42.0068 117.858 41.9029C117.858 41.76 117.792 41.6431 117.7 41.5522C117.594 41.4613 117.436 41.4223 117.251 41.4223C116.974 41.4223 116.697 41.5002 116.446 41.6301C116.196 41.773 115.985 41.9679 115.853 42.2146C115.708 42.4614 115.576 42.8641 115.457 43.4097L115.035 45.3061H114.256Z" fill="white"/>
<path d="M120.272 42.7081H122.831C122.844 42.6301 122.844 42.5782 122.844 42.5392C122.844 42.1625 122.739 41.8767 122.541 41.6689C122.343 41.4741 122.092 41.3702 121.789 41.3702C121.459 41.3702 121.169 41.4871 120.878 41.7079C120.601 41.9287 120.403 42.2664 120.272 42.7081ZM122.528 43.7991L123.293 43.8771C123.187 44.2408 122.937 44.5785 122.528 44.9162C122.145 45.2409 121.683 45.4098 121.129 45.4098C120.786 45.4098 120.469 45.3319 120.192 45.189C119.915 45.0461 119.704 44.8253 119.546 44.5265C119.401 44.2408 119.322 43.9031 119.322 43.5394C119.322 43.0588 119.44 42.5912 119.665 42.1365C119.902 41.6819 120.206 41.3442 120.575 41.1234C120.931 40.9026 121.327 40.7986 121.762 40.7986C122.316 40.7986 122.739 40.9675 123.068 41.2922C123.398 41.617 123.557 42.0586 123.557 42.6301C123.557 42.8509 123.543 43.0718 123.504 43.2926H120.14C120.126 43.3835 120.126 43.4614 120.126 43.5264C120.126 43.942 120.219 44.2538 120.43 44.4746C120.628 44.6954 120.865 44.7993 121.142 44.7993C121.406 44.7993 121.683 44.7084 121.934 44.5395C122.185 44.3707 122.382 44.1239 122.528 43.7991Z" fill="white"/>
<path d="M124.085 45.3059L125.048 40.9026H125.734L125.537 41.7988C125.774 41.4611 125.998 41.2013 126.236 41.0454C126.46 40.8766 126.684 40.7986 126.922 40.7986C127.08 40.7986 127.265 40.8506 127.502 40.9545L127.172 41.6559C127.041 41.565 126.895 41.5131 126.724 41.5131C126.46 41.5131 126.17 41.6559 125.893 41.9547C125.616 42.2534 125.365 42.773 125.207 43.5394L124.824 45.3059H124.085Z" fill="white"/>
<path d="M128.122 42.7081H130.682C130.695 42.6301 130.695 42.5782 130.695 42.5392C130.695 42.1625 130.59 41.8767 130.392 41.6689C130.194 41.4741 129.943 41.3702 129.626 41.3702C129.297 41.3702 129.006 41.4871 128.716 41.7079C128.466 41.9287 128.254 42.2664 128.122 42.7081ZM130.392 43.7991L131.157 43.8771C131.051 44.2408 130.801 44.5785 130.392 44.9162C130.009 45.2409 129.547 45.4098 128.993 45.4098C128.65 45.4098 128.334 45.3319 128.057 45.189C127.779 45.0461 127.568 44.8253 127.423 44.5265C127.278 44.2408 127.199 43.9031 127.199 43.5394C127.199 43.0588 127.318 42.5912 127.542 42.1365C127.779 41.6819 128.083 41.3442 128.452 41.1234C128.809 40.9026 129.204 40.7986 129.64 40.7986C130.194 40.7986 130.616 40.9675 130.946 41.2922C131.276 41.617 131.434 42.0586 131.434 42.6301C131.434 42.8509 131.421 43.0718 131.381 43.2926H127.991C127.977 43.3835 127.977 43.4614 127.977 43.5264C127.977 43.942 128.07 44.2538 128.281 44.4746C128.479 44.6954 128.716 44.7993 128.993 44.7993C129.257 44.7993 129.534 44.7084 129.785 44.5395C130.049 44.3707 130.233 44.1239 130.392 43.7991Z" fill="white"/>
<path d="M136.223 44.6955L136.091 45.306C135.906 45.3579 135.721 45.3709 135.55 45.3709C135.233 45.3709 134.983 45.293 134.811 45.1501C134.679 45.0462 134.6 44.8903 134.6 44.6955C134.6 44.6045 134.626 44.3707 134.706 44.02L135.273 41.4612H134.653L134.785 40.8766H135.392L135.629 39.7985L136.526 39.279L136.183 40.8766H136.935L136.816 41.4612H136.038L135.51 43.8901C135.431 44.2019 135.405 44.3837 135.405 44.4487C135.405 44.5396 135.431 44.6045 135.484 44.6565C135.55 44.7085 135.629 44.7214 135.748 44.7214C135.946 44.7474 136.091 44.7214 136.223 44.6955Z" fill="white"/>
<path d="M136.843 45.3061L138.163 39.2271H138.954L138.453 41.5652C138.73 41.2924 139.007 41.0976 139.258 40.9807C139.508 40.8638 139.759 40.7988 140.036 40.7988C140.419 40.7988 140.709 40.8897 140.933 41.0846C141.144 41.2794 141.25 41.5262 141.25 41.8509C141.25 42.0068 141.21 42.2926 141.105 42.7082L140.537 45.3061H139.759L140.339 42.6303C140.432 42.2406 140.458 42.0068 140.458 41.9029C140.458 41.76 140.419 41.6431 140.313 41.5522C140.207 41.4613 140.062 41.4093 139.864 41.4093C139.587 41.4093 139.31 41.4873 139.06 41.6171C138.796 41.76 138.598 41.9549 138.453 42.2017C138.321 42.4485 138.189 42.8511 138.057 43.3967L137.661 45.2931H136.843V45.3061Z" fill="white"/>
<path d="M142.86 42.7081H145.432C145.432 42.6301 145.446 42.5782 145.446 42.5392C145.446 42.1625 145.34 41.8767 145.142 41.6689C144.944 41.4741 144.694 41.3702 144.377 41.3702C144.047 41.3702 143.731 41.4871 143.467 41.7079C143.203 41.9287 142.992 42.2664 142.86 42.7081ZM145.142 43.7991L145.894 43.8771C145.775 44.2408 145.538 44.5785 145.142 44.9162C144.76 45.2409 144.285 45.4098 143.744 45.4098C143.401 45.4098 143.084 45.3319 142.807 45.189C142.53 45.0461 142.306 44.8253 142.147 44.5265C142.002 44.2408 141.936 43.9031 141.936 43.5394C141.936 43.0588 142.042 42.5912 142.279 42.1365C142.517 41.6819 142.82 41.3442 143.176 41.1234C143.546 40.9026 143.955 40.7986 144.377 40.7986C144.918 40.7986 145.353 40.9675 145.683 41.2922C146.013 41.617 146.171 42.0586 146.171 42.6301C146.171 42.8509 146.145 43.0718 146.118 43.2926H142.741C142.728 43.3835 142.728 43.4614 142.728 43.5264C142.728 43.942 142.82 44.2538 143.005 44.4746C143.216 44.6954 143.453 44.7993 143.731 44.7993C143.994 44.7993 144.271 44.7084 144.522 44.5395C144.799 44.3707 144.984 44.1239 145.142 43.7991Z" fill="white"/>
<path d="M150.088 43.4616C150.088 43.7734 150.115 44.0072 150.181 44.189C150.247 44.3709 150.365 44.5137 150.51 44.6306C150.656 44.7475 150.84 44.8125 151.065 44.8125C151.408 44.8125 151.737 44.6306 152.014 44.2799C152.397 43.8123 152.595 43.2278 152.595 42.5394C152.595 42.1887 152.503 41.9159 152.318 41.7211C152.12 41.5262 151.883 41.4223 151.606 41.4223C151.408 41.4223 151.249 41.4613 151.104 41.5392C150.946 41.6171 150.788 41.76 150.642 41.9419C150.497 42.1367 150.365 42.3835 150.26 42.6693C150.141 42.968 150.088 43.2278 150.088 43.4616ZM152.239 44.6696C151.79 45.1632 151.315 45.41 150.84 45.41C150.405 45.41 150.036 45.2541 149.758 44.9424C149.455 44.6306 149.323 44.189 149.323 43.6045C149.323 43.0719 149.429 42.5783 149.666 42.1367C149.89 41.6951 150.167 41.3574 150.51 41.1365C150.854 40.9157 151.21 40.7988 151.553 40.7988C152.12 40.7988 152.555 41.0586 152.846 41.5912L153.347 39.2271H154.139L152.819 45.3061H152.094L152.239 44.6696Z" fill="white"/>
<path d="M154.046 45.3059L155.009 40.9026H155.695L155.497 41.7988C155.734 41.4611 155.959 41.2013 156.196 41.0454C156.42 40.8766 156.645 40.7986 156.882 40.7986C157.041 40.7986 157.225 40.8506 157.463 40.9545L157.133 41.6559C157.001 41.565 156.856 41.5131 156.684 41.5131C156.42 41.5131 156.13 41.6559 155.853 41.9547C155.576 42.2534 155.339 42.773 155.167 43.5394L154.785 45.3059H154.046Z" fill="white"/>
<path d="M158.097 42.7081H160.669V42.5392C160.669 42.1625 160.564 41.8767 160.366 41.6689C160.168 41.4741 159.917 41.3702 159.601 41.3702C159.271 41.3702 158.981 41.4871 158.69 41.7079C158.44 41.9287 158.229 42.2664 158.097 42.7081ZM160.353 43.7991L161.118 43.8771C161.012 44.2408 160.762 44.5785 160.379 44.9162C159.983 45.2409 159.521 45.4098 158.967 45.4098C158.624 45.4098 158.308 45.3319 158.031 45.189C157.754 45.0461 157.543 44.8253 157.397 44.5265C157.252 44.2408 157.173 43.9031 157.173 43.5394C157.173 43.0588 157.292 42.5912 157.529 42.1365C157.754 41.6819 158.044 41.3442 158.426 41.1234C158.796 40.9026 159.192 40.7986 159.614 40.7986C160.168 40.7986 160.59 40.9675 160.92 41.2922C161.25 41.617 161.408 42.0586 161.408 42.6301C161.408 42.8509 161.395 43.0718 161.355 43.2926H157.978C157.978 43.3835 157.965 43.4614 157.965 43.5264C157.965 43.942 158.07 44.2538 158.268 44.4746C158.466 44.6954 158.703 44.7993 158.994 44.7993C159.258 44.7993 159.508 44.7084 159.785 44.5395C160.01 44.3707 160.221 44.1239 160.353 43.7991Z" fill="white"/>
<path d="M165.287 43.072C165.181 43.1109 165.063 43.1499 164.944 43.1629C164.812 43.1889 164.601 43.2019 164.324 43.2278C163.862 43.2668 163.532 43.3188 163.361 43.3707C163.163 43.4357 163.031 43.5266 162.925 43.6565C162.833 43.7864 162.793 43.9293 162.793 44.0851C162.793 44.293 162.873 44.4618 163.018 44.6047C163.163 44.7476 163.387 44.8125 163.651 44.8125C163.915 44.8125 164.152 44.7476 164.416 44.6177C164.654 44.4878 164.838 44.3059 164.983 44.0721C165.102 43.8383 165.208 43.5006 165.287 43.072ZM164.997 44.7606C164.733 44.9814 164.456 45.1502 164.218 45.2542C163.968 45.3581 163.691 45.41 163.413 45.41C162.978 45.41 162.635 45.2931 162.384 45.0463C162.121 44.7995 162.002 44.5008 162.002 44.1241C162.002 43.8773 162.068 43.6565 162.16 43.4746C162.279 43.2798 162.437 43.1369 162.635 43.02C162.833 42.9031 163.057 42.8252 163.334 42.7732C163.519 42.7343 163.836 42.7083 164.337 42.6953C164.825 42.6823 165.181 42.6303 165.392 42.5524C165.458 42.3446 165.485 42.1757 165.485 42.0458C165.485 41.877 165.419 41.7341 165.287 41.6302C165.102 41.4873 164.838 41.4223 164.495 41.4223C164.165 41.4223 163.902 41.4873 163.691 41.6302C163.466 41.7731 163.321 41.9679 163.229 42.2277L162.437 42.1627C162.596 41.7211 162.859 41.3834 163.189 41.1626C163.545 40.9288 163.994 40.8118 164.508 40.8118C165.076 40.8118 165.538 40.9417 165.867 41.2015C166.118 41.3964 166.237 41.6432 166.237 41.9549C166.237 42.1887 166.21 42.4615 166.131 42.7732L165.881 43.8643C165.801 44.215 165.762 44.5008 165.762 44.7086C165.762 44.8515 165.788 45.0463 165.854 45.3061H165.063C165.049 45.1632 165.01 44.9814 164.997 44.7606Z" fill="white"/>
<path d="M166.816 45.3059L167.779 40.9026H168.558L168.413 41.63C168.69 41.3182 168.954 41.0974 169.191 40.9805C169.415 40.8636 169.666 40.7986 169.93 40.7986C170.207 40.7986 170.444 40.8766 170.642 41.0195C170.84 41.1623 170.959 41.3702 171.012 41.63C171.249 41.3572 171.487 41.1494 171.751 41.0065C172.001 40.8766 172.265 40.7986 172.555 40.7986C172.938 40.7986 173.228 40.8896 173.413 41.0584C173.611 41.2273 173.716 41.4741 173.716 41.7988C173.716 41.9287 173.677 42.1625 173.611 42.4743L172.991 45.3189H172.212L172.846 42.3963C172.912 42.1625 172.938 41.9937 172.938 41.8897C172.938 41.7469 172.898 41.63 172.793 41.552C172.7 41.4611 172.569 41.4221 172.397 41.4221C172.173 41.4221 171.935 41.4871 171.685 41.63C171.447 41.7598 171.249 41.9417 171.13 42.1625C170.999 42.3833 170.88 42.721 170.774 43.1757L170.313 45.3059H169.521L170.181 42.3314C170.22 42.1235 170.233 41.9807 170.233 41.9027C170.233 41.7598 170.194 41.6429 170.101 41.552C170.009 41.4611 169.877 41.4221 169.732 41.4221C169.508 41.4221 169.283 41.4871 169.046 41.63C168.795 41.7728 168.597 41.9547 168.452 42.2015C168.307 42.4483 168.175 42.786 168.083 43.2406L167.621 45.3189L166.816 45.3059Z" fill="white"/>
<path d="M177.794 43.4876V43.6305C177.794 44.0072 177.886 44.2929 178.071 44.4878C178.256 44.6826 178.493 44.7865 178.77 44.7865C179.034 44.7865 179.285 44.6956 179.509 44.5137C179.747 44.3319 179.931 44.0461 180.076 43.6564C180.221 43.2668 180.301 42.9031 180.301 42.5783C180.301 42.2146 180.208 41.9159 180.024 41.7211C179.839 41.5132 179.601 41.4093 179.338 41.4093C179.061 41.4093 178.797 41.5132 178.559 41.7211C178.322 41.9289 178.124 42.2536 177.965 42.6823C177.86 43.007 177.794 43.2798 177.794 43.4876ZM176.633 45.3061L177.952 39.2271H178.744L178.269 41.3963C178.52 41.1755 178.744 41.0196 178.942 40.9287C179.153 40.8378 179.364 40.7988 179.588 40.7988C180.01 40.7988 180.367 40.9547 180.657 41.2664C180.934 41.5782 181.092 42.0198 181.092 42.6043C181.092 42.994 181.039 43.3577 180.908 43.6694C180.789 43.9942 180.657 44.2669 180.472 44.4878C180.314 44.7086 180.129 44.8774 179.958 45.0203C179.773 45.1502 179.588 45.2541 179.404 45.3191C179.206 45.384 179.021 45.41 178.849 45.41C178.533 45.41 178.282 45.3321 178.045 45.1762C177.82 45.0203 177.622 44.7865 177.504 44.4748L177.332 45.3061H176.633Z" fill="white"/>
<path d="M182.65 42.7081H185.222C185.236 42.6301 185.236 42.5782 185.236 42.5392C185.236 42.1625 185.13 41.8767 184.932 41.6689C184.734 41.4741 184.484 41.3702 184.18 41.3702C183.85 41.3702 183.547 41.4871 183.27 41.7079C182.993 41.9287 182.782 42.2664 182.65 42.7081ZM184.932 43.7991L185.697 43.8771C185.592 44.2408 185.341 44.5785 184.932 44.9162C184.55 45.2409 184.088 45.4098 183.534 45.4098C183.191 45.4098 182.874 45.3319 182.597 45.189C182.32 45.0461 182.109 44.8253 181.951 44.5265C181.805 44.2408 181.726 43.9031 181.726 43.5394C181.726 43.0588 181.845 42.5912 182.069 42.1365C182.307 41.6819 182.61 41.3442 182.98 41.1234C183.336 40.9026 183.732 40.7986 184.167 40.7986C184.721 40.7986 185.156 40.9675 185.473 41.2922C185.803 41.617 185.961 42.0586 185.961 42.6301C185.961 42.8509 185.935 43.0718 185.908 43.2926H182.531C182.518 43.3835 182.518 43.4614 182.518 43.5264C182.518 43.942 182.61 44.2538 182.821 44.4746C183.019 44.6954 183.257 44.7993 183.534 44.7993C183.798 44.7993 184.075 44.7084 184.325 44.5395C184.589 44.3707 184.774 44.1239 184.932 43.7991Z" fill="white"/>
<path d="M187.411 43.3575C187.411 43.6563 187.438 43.8901 187.504 44.033C187.596 44.2408 187.715 44.4096 187.873 44.5265C188.018 44.6434 188.203 44.6954 188.401 44.6954C188.665 44.6954 188.915 44.6045 189.179 44.4356C189.43 44.2668 189.641 43.994 189.786 43.6303C189.944 43.2666 190.023 42.9159 190.023 42.5912C190.023 42.2275 189.918 41.9417 189.707 41.7209C189.496 41.5131 189.232 41.3961 188.928 41.3961C188.731 41.3961 188.559 41.4481 188.374 41.539C188.19 41.6429 188.031 41.7858 187.873 41.9936C187.728 42.1885 187.609 42.4353 187.53 42.7081C187.438 42.9938 187.411 43.2146 187.411 43.3575ZM186.435 45.7086L187.227 45.7735C187.227 45.9424 187.24 46.0723 187.292 46.1632C187.358 46.2541 187.424 46.3191 187.53 46.358C187.675 46.423 187.86 46.4489 188.084 46.4489C188.559 46.4489 188.902 46.332 189.1 46.0982C189.245 45.9424 189.364 45.5917 189.483 45.0721L189.562 44.7084C189.166 45.1111 188.731 45.3059 188.269 45.3059C187.807 45.3059 187.424 45.137 187.108 44.8123C186.791 44.4876 186.633 44.02 186.633 43.4225C186.633 42.9289 186.765 42.4742 187.002 42.0586C187.253 41.6429 187.543 41.3312 187.886 41.1234C188.229 40.9155 188.572 40.7986 188.942 40.7986C189.535 40.7986 189.997 41.0714 190.327 41.617L190.472 40.8896H191.184L190.261 45.15C190.169 45.6176 190.037 45.9813 189.878 46.2411C189.72 46.5009 189.483 46.7087 189.192 46.8516C188.889 46.9945 188.572 47.0724 188.176 47.0724C187.807 47.0724 187.49 47.0335 187.227 46.9295C186.963 46.8386 186.765 46.7087 186.633 46.5269C186.501 46.345 186.435 46.1502 186.435 45.9164C186.409 45.8514 186.409 45.7865 186.435 45.7086Z" fill="white"/>
<path d="M192.504 40.0714L192.689 39.2271H193.48L193.282 40.0714H192.504ZM191.356 45.3061L192.319 40.9027H193.098L192.148 45.3061H191.356Z" fill="white"/>
<path d="M193.349 45.3059L194.312 40.9026H195.011L194.853 41.6689C195.169 41.3702 195.446 41.1494 195.71 41.0065C195.974 40.8636 196.251 40.7986 196.528 40.7986C196.898 40.7986 197.201 40.9026 197.412 41.0844C197.623 41.2792 197.729 41.539 197.729 41.8638C197.729 42.0196 197.702 42.2794 197.623 42.6301L197.043 45.3059H196.251L196.858 42.5132C196.924 42.2404 196.95 42.0456 196.95 41.9157C196.95 41.7728 196.911 41.6559 196.805 41.552C196.7 41.4611 196.541 41.4091 196.343 41.4091C195.948 41.4091 195.578 41.552 195.275 41.8248C194.958 42.0976 194.734 42.5782 194.589 43.2536L194.14 45.3059H193.349Z" fill="white"/>
<path d="M198.348 43.7994L199.126 43.7605C199.126 43.9813 199.152 44.1631 199.231 44.306C199.311 44.4619 199.429 44.5788 199.614 44.6827C199.799 44.7866 200.01 44.8256 200.26 44.8256C200.604 44.8256 200.867 44.7606 201.039 44.6307C201.224 44.5008 201.303 44.345 201.303 44.1631C201.303 44.0332 201.25 43.9033 201.144 43.7864C201.039 43.6695 200.788 43.5266 200.366 43.3578C199.944 43.1889 199.693 43.072 199.574 42.9941C199.377 42.8772 199.231 42.7473 199.139 42.5914C199.034 42.4356 198.994 42.2667 198.994 42.0589C198.994 41.7082 199.126 41.4094 199.429 41.1626C199.706 40.9158 200.115 40.7859 200.63 40.7859C201.21 40.7859 201.646 40.9158 201.936 41.1756C202.239 41.4354 202.398 41.7731 202.411 42.1888L201.633 42.2407C201.633 41.968 201.527 41.7601 201.356 41.6172C201.158 41.4614 200.907 41.3834 200.564 41.3834C200.3 41.3834 200.089 41.4484 199.944 41.5653C199.799 41.6822 199.72 41.8121 199.72 41.955C199.72 42.0978 199.772 42.2147 199.917 42.3187C200.01 42.3966 200.234 42.5005 200.59 42.6564C201.184 42.9032 201.553 43.098 201.725 43.2409C201.962 43.4747 202.094 43.7475 202.094 44.0722C202.094 44.293 202.015 44.5008 201.883 44.7087C201.738 44.9165 201.527 45.0854 201.25 45.2152C200.947 45.3451 200.63 45.4101 200.234 45.4101C199.693 45.4101 199.258 45.2802 198.875 45.0334C198.493 44.7736 198.321 44.3709 198.348 43.7994Z" fill="white"/>
<path d="M117.798 37.6579C111.961 37.6579 108.551 34.1711 108.289 29.251L108.267 28.9943H113.098L113.12 29.1868C113.316 31.5399 114.825 33.3796 117.754 33.3796C120.989 33.3796 122.738 31.4971 122.738 27.9675V6.27626H127.634V28.0102C127.634 34.0855 123.984 37.6579 117.798 37.6579Z" fill="white"/>
<path d="M142.827 37.5937C136.225 37.5937 131.919 33.1229 131.919 25.8925V25.8497C131.919 18.6621 136.269 14.2126 142.805 14.2126C149.363 14.2126 153.735 18.6407 153.735 25.8497V25.8925C153.735 33.1443 149.407 37.5937 142.827 37.5937ZM142.849 33.7218C146.543 33.7218 148.904 30.8553 148.904 25.8925V25.8497C148.904 20.9296 146.499 18.0845 142.805 18.0845C139.176 18.0845 136.75 20.9296 136.75 25.8497V25.8925C136.75 30.8767 139.155 33.7218 142.849 33.7218Z" fill="white"/>
<path d="M169.605 37.5937C166.304 37.5937 163.747 35.968 162.391 33.3368H162.282V37.1445H157.56V6.27626H162.282V18.4695H162.391C163.769 15.817 166.392 14.2126 169.649 14.2126C175.42 14.2126 179.223 18.7048 179.223 25.8711V25.8925C179.223 33.0587 175.442 37.5937 169.605 37.5937ZM168.359 33.6149C172.075 33.6149 174.392 30.6842 174.392 25.8925V25.8711C174.392 21.1221 172.075 18.1701 168.359 18.1701C164.796 18.1701 162.26 21.2077 162.26 25.8711V25.8925C162.26 30.5772 164.774 33.6149 168.359 33.6149Z" fill="white"/>
<path d="M191.487 37.5937C185.738 37.5937 182.371 34.8128 181.89 30.7056L181.868 30.5131H186.546L186.59 30.727C187.027 32.802 188.601 34.0213 191.509 34.0213C194.35 34.0213 196.055 32.8662 196.055 31.0479V31.0265C196.055 29.5718 195.225 28.7376 192.755 28.16L188.995 27.3257C184.623 26.3417 182.459 24.2881 182.459 21.0152V20.9938C182.459 16.9721 186.044 14.2126 191.334 14.2126C196.777 14.2126 200.056 17.186 200.296 21.0152L200.318 21.2719H195.88L195.859 21.1221C195.574 19.1541 194.001 17.785 191.334 17.785C188.798 17.785 187.202 18.9615 187.202 20.7585V20.7798C187.202 22.1703 188.142 23.1115 190.612 23.6891L194.35 24.5234C199.05 25.593 200.843 27.4113 200.843 30.6414V30.6628C200.843 34.77 196.908 37.5937 191.487 37.5937Z" fill="white"/>
</svg>
