<svg width="20" height="20" viewBox="0 0 20 20" fill="none" xmlns="http://www.w3.org/2000/svg">
<path d="M15 8.95833C14.6583 8.95833 14.375 8.675 14.375 8.33333V6.66666C14.375 4.04166 13.6333 2.29166 10 2.29166C6.36667 2.29166 5.625 4.04166 5.625 6.66666V8.33333C5.625 8.675 5.34167 8.95833 5 8.95833C4.65833 8.95833 4.375 8.675 4.375 8.33333V6.66666C4.375 4.25 4.95833 1.04166 10 1.04166C15.0417 1.04166 15.625 4.25 15.625 6.66666V8.33333C15.625 8.675 15.3417 8.95833 15 8.95833Z" fill="#A7A7A7"/>
<path d="M9.99996 16.0417C8.50829 16.0417 7.29163 14.825 7.29163 13.3333C7.29163 11.8417 8.50829 10.625 9.99996 10.625C11.4916 10.625 12.7083 11.8417 12.7083 13.3333C12.7083 14.825 11.4916 16.0417 9.99996 16.0417ZM9.99996 11.875C9.19996 11.875 8.54163 12.5333 8.54163 13.3333C8.54163 14.1333 9.19996 14.7917 9.99996 14.7917C10.8 14.7917 11.4583 14.1333 11.4583 13.3333C11.4583 12.5333 10.8 11.875 9.99996 11.875Z" fill="#A7A7A7"/>
<path d="M14.1666 18.9583H5.83329C2.15829 18.9583 1.04163 17.8417 1.04163 14.1667V12.5C1.04163 8.825 2.15829 7.70834 5.83329 7.70834H14.1666C17.8416 7.70834 18.9583 8.825 18.9583 12.5V14.1667C18.9583 17.8417 17.8416 18.9583 14.1666 18.9583ZM5.83329 8.95834C2.84996 8.95834 2.29163 9.525 2.29163 12.5V14.1667C2.29163 17.1417 2.84996 17.7083 5.83329 17.7083H14.1666C17.15 17.7083 17.7083 17.1417 17.7083 14.1667V12.5C17.7083 9.525 17.15 8.95834 14.1666 8.95834H5.83329Z" fill="#A7A7A7"/>
</svg>
