<svg width="16" height="16" viewBox="0 0 16 16" fill="none" xmlns="http://www.w3.org/2000/svg">
<path d="M7.36659 9.96659L6.13325 11.1999C5.87325 11.4599 5.45992 11.4599 5.19325 11.2066C5.11992 11.1333 5.04659 11.0666 4.97325 10.9933C4.28659 10.2999 3.66659 9.57325 3.11325 8.81325C2.56659 8.05325 2.12659 7.29325 1.80659 6.53992C1.49325 5.77992 1.33325 5.05325 1.33325 4.35992C1.33325 3.90659 1.41325 3.47325 1.57325 3.07325C1.73325 2.66659 1.98659 2.29325 2.33992 1.95992C2.76659 1.53992 3.23325 1.33325 3.72659 1.33325C3.91325 1.33325 4.09992 1.37325 4.26659 1.45325C4.43992 1.53325 4.59325 1.65325 4.71325 1.82659L6.25992 4.00659C6.37992 4.17325 6.46659 4.32659 6.52659 4.47325C6.58659 4.61325 6.61992 4.75325 6.61992 4.87992C6.61992 5.03992 6.57325 5.19992 6.47992 5.35325C6.39325 5.50659 6.26658 5.66659 6.10659 5.82659L5.59992 6.35325C5.52658 6.42659 5.49325 6.51325 5.49325 6.61992C5.49325 6.67325 5.49992 6.71992 5.51325 6.77325C5.53325 6.82659 5.55325 6.86659 5.56659 6.90659C5.68659 7.12659 5.89325 7.41325 6.18658 7.75992C6.48658 8.10659 6.80658 8.45992 7.15325 8.81325C7.21992 8.87992 7.29325 8.94659 7.35992 9.01325C7.62659 9.27325 7.63325 9.69992 7.36659 9.96659Z" fill="#BC2228"/>
<path d="M14.6466 12.2201C14.6466 12.4068 14.6132 12.6001 14.5466 12.7868C14.5266 12.8401 14.5066 12.8934 14.4799 12.9468C14.3666 13.1868 14.2199 13.4134 14.0266 13.6268C13.6999 13.9868 13.3399 14.2468 12.9332 14.4134C12.9266 14.4134 12.9199 14.4201 12.9132 14.4201C12.5199 14.5801 12.0932 14.6668 11.6332 14.6668C10.9532 14.6668 10.2266 14.5068 9.4599 14.1801C8.69324 13.8534 7.92657 13.4134 7.16657 12.8601C6.90657 12.6668 6.64657 12.4734 6.3999 12.2668L8.5799 10.0868C8.76657 10.2268 8.93324 10.3334 9.07324 10.4068C9.10657 10.4201 9.14657 10.4401 9.19324 10.4601C9.24657 10.4801 9.2999 10.4868 9.3599 10.4868C9.47324 10.4868 9.5599 10.4468 9.63324 10.3734L10.1399 9.87344C10.3066 9.70677 10.4666 9.58011 10.6199 9.50011C10.7732 9.40677 10.9266 9.36011 11.0932 9.36011C11.2199 9.36011 11.3532 9.38677 11.4999 9.44677C11.6466 9.50677 11.7999 9.59344 11.9666 9.70677L14.1732 11.2734C14.3466 11.3934 14.4666 11.5334 14.5399 11.7001C14.6066 11.8668 14.6466 12.0334 14.6466 12.2201Z" fill="#BC2228"/>
</svg>
