<svg width="16" height="16" viewBox="0 0 16 16" fill="none" xmlns="http://www.w3.org/2000/svg">
<path d="M7.99992 15.1666C4.04659 15.1666 0.833252 11.9533 0.833252 7.99992C0.833252 4.04659 4.04659 0.833252 7.99992 0.833252C11.9533 0.833252 15.1666 4.04659 15.1666 7.99992C15.1666 11.9533 11.9533 15.1666 7.99992 15.1666ZM7.99992 1.83325C4.59992 1.83325 1.83325 4.59992 1.83325 7.99992C1.83325 11.3999 4.59992 14.1666 7.99992 14.1666C11.3999 14.1666 14.1666 11.3999 14.1666 7.99992C14.1666 4.59992 11.3999 1.83325 7.99992 1.83325Z" fill="white"/>
<path d="M8.16007 11.1666C6.41341 11.1666 4.99341 9.74659 4.99341 7.99992C4.99341 6.25325 6.41341 4.83325 8.16007 4.83325C8.92674 4.83325 9.67341 5.11325 10.2467 5.62659C10.4534 5.80659 10.4734 6.12659 10.2934 6.33325C10.1134 6.53992 9.79342 6.55992 9.58675 6.37992C9.19342 6.03326 8.68674 5.83993 8.16007 5.83993C6.96674 5.83993 5.99341 6.81326 5.99341 8.00659C5.99341 9.19993 6.96674 10.1733 8.16007 10.1733C8.68007 10.1733 9.19342 9.97993 9.58675 9.63326C9.79342 9.45326 10.1134 9.47327 10.2934 9.67993C10.4734 9.8866 10.4534 10.2066 10.2467 10.3866C9.66674 10.8866 8.92674 11.1666 8.16007 11.1666Z" fill="white"/>
</svg>
