<svg width="139" height="33" viewBox="0 0 139 33" fill="none" xmlns="http://www.w3.org/2000/svg">
<g clip-path="url(#clip0_0_752)">
<path d="M8.92459 14.8877H3.55729V3.6134H8.90496C8.90496 3.6134 14.5568 3.35828 14.5568 8.94144C14.5568 14.397 9.36614 14.8877 8.92459 14.8877ZM11.4365 17.0071C11.4365 17.0071 18.3247 15.653 18.3247 8.50971C18.3247 1.35658 11.6818 0.316486 9.63107 0.316486H0.00526456V31.4017H3.55729V18.0276H6.48134C8.1298 18.0276 9.76844 18.2925 12.0449 21.9917L17.5201 31.3918H21.759L15.0769 20.4414C15.0769 20.4414 13.4677 17.6449 11.4365 17.0071Z" fill="#BC2228"/>
<path d="M27.5682 3.6134V0.316486H23.9966V3.57415" fill="#919191"/>
<path d="M23.9966 4.78101V31.5292H27.5682V4.81045" fill="#919191"/>
<path d="M70.2018 4.78101H66.64V31.4899H70.2018V4.78101Z" fill="#919191"/>
<path d="M64.452 4.73192H49.6159V8.35263H64.452V4.73192Z" fill="#919191"/>
<path d="M64.452 27.8987H49.6159V31.5194H64.452V27.8987Z" fill="#919191"/>
<path d="M59.6244 16.5262H49.6159V20.1567H59.6244V16.5262Z" fill="#919191"/>
<path d="M40.942 4.78101H37.3507L27.4501 18.1355L37.3507 31.4899H40.942L31.061 18.1355L40.942 4.78101Z" fill="#919191"/>
<path d="M43.9253 4.78101L34.1621 18.1355L43.9253 31.4899H47.4871L37.7141 18.1355L47.4871 4.78101H43.9253Z" fill="#BC2228"/>
</g>
<path d="M74.5159 30.7376L74.1911 27.7978H74.7143L74.8496 29.116L74.9128 29.8618C74.9128 29.9138 74.9218 30.0265 74.9308 30.2C74.994 30.0092 75.0301 29.8704 75.0842 29.7664C75.1203 29.6623 75.1834 29.5236 75.2736 29.3328L76.0134 27.7978H76.5908L76.69 29.2721C76.708 29.4975 76.7171 29.7924 76.7171 30.1653C76.8163 29.9138 76.9787 29.5756 77.2042 29.1333L77.8718 27.7978H78.404L76.8794 30.7376H76.3201L76.2119 29.0119C76.2028 28.9079 76.1938 28.6997 76.1938 28.3875C76.1126 28.587 76.0224 28.7951 75.9051 29.0293L75.0752 30.7463H74.5159V30.7376Z" fill="#919191"/>
<path d="M78.2864 30.7376L79.1795 26.6791H79.7208L79.378 28.2401C79.5855 28.058 79.7659 27.9279 79.9283 27.8498C80.0997 27.7631 80.2801 27.7284 80.4515 27.7284C80.7132 27.7284 80.9207 27.7891 81.065 27.9192C81.2093 28.0493 81.2815 28.2141 81.2815 28.4309C81.2815 28.5349 81.2544 28.7257 81.1913 29.0032L80.8034 30.7376H80.2621L80.659 28.9512C80.7222 28.691 80.7492 28.5349 80.7492 28.4655C80.7492 28.3702 80.7041 28.2921 80.641 28.2314C80.5688 28.1707 80.4606 28.1447 80.3343 28.1447C80.1448 28.1447 79.9554 28.1967 79.784 28.2834C79.6126 28.3788 79.4682 28.5089 79.378 28.6737C79.2788 28.8384 79.1886 29.1073 79.1074 29.4715L78.8187 30.7376H78.2864Z" fill="#919191"/>
<path d="M82.4 29.0031H84.1502C84.1592 28.9511 84.1592 28.9164 84.1592 28.8904C84.1592 28.6389 84.087 28.4481 83.9517 28.3094C83.8164 28.1793 83.645 28.1099 83.4375 28.1099C83.212 28.1099 83.0135 28.188 82.815 28.3354C82.6256 28.4828 82.4903 28.7083 82.4 29.0031ZM83.9427 29.7316L84.4659 29.7836C84.3938 30.0264 84.2224 30.2519 83.9427 30.4774C83.6811 30.6942 83.3653 30.8069 82.9864 30.8069C82.7519 30.8069 82.5354 30.7549 82.3459 30.6595C82.1565 30.5641 82.0121 30.4167 81.9039 30.2172C81.8046 30.0264 81.7505 29.801 81.7505 29.5581C81.7505 29.2373 81.8317 28.9251 81.9851 28.6216C82.1474 28.3181 82.3549 28.0926 82.6075 27.9452C82.8511 27.7977 83.1217 27.7284 83.4195 27.7284C83.7983 27.7284 84.087 27.8411 84.3126 28.0579C84.5381 28.2747 84.6464 28.5695 84.6464 28.9511C84.6464 29.0985 84.6373 29.246 84.6103 29.3934H82.3098C82.3008 29.4541 82.3008 29.5061 82.3008 29.5495C82.3008 29.827 82.364 30.0351 82.5083 30.1825C82.6436 30.3299 82.806 30.3993 82.9954 30.3993C83.1759 30.3993 83.3653 30.3386 83.5367 30.2259C83.7081 30.1132 83.8435 29.9484 83.9427 29.7316Z" fill="#919191"/>
<path d="M85.0079 30.7375L85.6665 27.7977H86.1356L86.0003 28.3961C86.1626 28.1706 86.316 27.9972 86.4784 27.8931C86.6318 27.7804 86.7851 27.7284 86.9475 27.7284C87.0558 27.7284 87.1821 27.7631 87.3444 27.8324L87.1189 28.3007C87.0287 28.24 86.9295 28.2053 86.8122 28.2053C86.6318 28.2053 86.4333 28.3007 86.2438 28.5002C86.0544 28.6996 85.883 29.0465 85.7747 29.5581L85.5131 30.7375H85.0079Z" fill="#919191"/>
<path d="M87.7683 29.0031H89.5184C89.5274 28.9511 89.5274 28.9164 89.5274 28.8904C89.5274 28.6389 89.4552 28.4481 89.3199 28.3094C89.1846 28.1793 89.0132 28.1099 88.7967 28.1099C88.5712 28.1099 88.3727 28.188 88.1742 28.3354C88.0028 28.4828 87.8585 28.7083 87.7683 29.0031ZM89.3199 29.7316L89.8432 29.7836C89.771 30.0264 89.5996 30.2519 89.3199 30.4774C89.0583 30.6942 88.7426 30.8069 88.3637 30.8069C88.1291 30.8069 87.9126 30.7549 87.7231 30.6595C87.5337 30.5641 87.3894 30.4167 87.2901 30.2172C87.1909 30.0264 87.1368 29.801 87.1368 29.5581C87.1368 29.2373 87.218 28.9251 87.3713 28.6216C87.5337 28.3181 87.7412 28.0926 87.9938 27.9452C88.2374 27.7977 88.508 27.7284 88.8057 27.7284C89.1846 27.7284 89.4733 27.8411 89.6988 28.0579C89.9244 28.2747 90.0326 28.5695 90.0326 28.9511C90.0326 29.0985 90.0236 29.246 89.9965 29.3934H87.678C87.669 29.4541 87.669 29.5061 87.669 29.5495C87.669 29.827 87.7322 30.0351 87.8765 30.1825C88.0118 30.3299 88.1742 30.3993 88.3637 30.3993C88.5441 30.3993 88.7335 30.3386 88.9049 30.2259C89.0854 30.1132 89.2117 29.9484 89.3199 29.7316Z" fill="#919191"/>
<path d="M93.3072 30.33L93.217 30.7376C93.0907 30.7722 92.9644 30.7809 92.8471 30.7809C92.6306 30.7809 92.4592 30.7289 92.3419 30.6335C92.2517 30.5641 92.1976 30.4601 92.1976 30.33C92.1976 30.2693 92.2156 30.1132 92.2698 29.879L92.6577 28.1707H92.2337L92.3239 27.7804H92.7389L92.9013 27.0607L93.5147 26.7138L93.2801 27.7804H93.7944L93.7132 28.1707H93.1809L92.8201 29.7923C92.7659 30.0004 92.7479 30.1219 92.7479 30.1652C92.7479 30.2259 92.7659 30.2693 92.802 30.304C92.8471 30.3386 92.9013 30.3473 92.9824 30.3473C93.1178 30.3647 93.217 30.3473 93.3072 30.33Z" fill="#919191"/>
<path d="M93.7314 30.7376L94.6335 26.6791H95.1748L94.832 28.2401C95.0215 28.058 95.2109 27.9279 95.3823 27.8498C95.5537 27.7718 95.7251 27.7284 95.9146 27.7284C96.1762 27.7284 96.3747 27.7891 96.528 27.9192C96.6724 28.0493 96.7445 28.2141 96.7445 28.4309C96.7445 28.5349 96.7175 28.7257 96.6453 29.0032L96.2574 30.7376H95.7251L96.1221 28.9512C96.1852 28.691 96.2033 28.5349 96.2033 28.4655C96.2033 28.3702 96.1762 28.2921 96.104 28.2314C96.0318 28.1707 95.9326 28.136 95.7973 28.136C95.6078 28.136 95.4184 28.188 95.247 28.2748C95.0666 28.3702 94.9312 28.5002 94.832 28.665C94.7418 28.8298 94.6516 29.0986 94.5614 29.4628L94.2907 30.7289H93.7314V30.7376Z" fill="#919191"/>
<path d="M97.8456 29.0031H99.6048C99.6048 28.9511 99.6138 28.9164 99.6138 28.8904C99.6138 28.6389 99.5416 28.4481 99.4063 28.3094C99.271 28.1793 99.0996 28.1099 98.883 28.1099C98.6575 28.1099 98.441 28.188 98.2606 28.3354C98.0802 28.4828 97.9358 28.7083 97.8456 29.0031ZM99.4063 29.7316L99.9205 29.7836C99.8393 30.0264 99.6769 30.2519 99.4063 30.4774C99.1447 30.6942 98.8199 30.8069 98.45 30.8069C98.2155 30.8069 97.999 30.7549 97.8095 30.6595C97.6201 30.5641 97.4667 30.4167 97.3584 30.2172C97.2592 30.0264 97.2141 29.801 97.2141 29.5581C97.2141 29.2373 97.2863 28.9251 97.4487 28.6216C97.611 28.3181 97.8185 28.0926 98.0621 27.9452C98.3147 27.7977 98.5944 27.7284 98.883 27.7284C99.2529 27.7284 99.5506 27.8411 99.7762 28.0579C100.002 28.2747 100.11 28.5695 100.11 28.9511C100.11 29.0985 100.092 29.246 100.074 29.3934H97.7644C97.7554 29.4541 97.7554 29.5061 97.7554 29.5495C97.7554 29.827 97.8185 30.0351 97.9448 30.1825C98.0892 30.3299 98.2516 30.3993 98.441 30.3993C98.6214 30.3993 98.8109 30.3386 98.9823 30.2259C99.1717 30.1132 99.298 29.9484 99.4063 29.7316Z" fill="#919191"/>
<path d="M102.789 29.5062C102.789 29.7143 102.807 29.8704 102.852 29.9918C102.897 30.1132 102.978 30.2086 103.077 30.2867C103.177 30.3647 103.303 30.4081 103.456 30.4081C103.691 30.4081 103.916 30.2867 104.106 30.0525C104.367 29.7403 104.503 29.3501 104.503 28.8905C104.503 28.6563 104.44 28.4742 104.313 28.3441C104.178 28.2141 104.016 28.1447 103.826 28.1447C103.691 28.1447 103.582 28.1707 103.483 28.2227C103.375 28.2748 103.267 28.3702 103.168 28.4916C103.068 28.6216 102.978 28.7864 102.906 28.9772C102.825 29.1766 102.789 29.3501 102.789 29.5062ZM104.259 30.3127C103.952 30.6422 103.628 30.807 103.303 30.807C103.005 30.807 102.753 30.7029 102.563 30.4948C102.356 30.2867 102.265 29.9918 102.265 29.6016C102.265 29.246 102.338 28.9165 102.5 28.6216C102.653 28.3268 102.843 28.1013 103.077 27.9539C103.312 27.8065 103.555 27.7284 103.79 27.7284C104.178 27.7284 104.476 27.9019 104.674 28.2574L105.017 26.6791H105.558L104.656 30.7376H104.16L104.259 30.3127Z" fill="#919191"/>
<path d="M105.495 30.7375L106.153 27.7977H106.622L106.487 28.3961C106.649 28.1706 106.803 27.9972 106.965 27.8931C107.118 27.7804 107.272 27.7284 107.434 27.7284C107.542 27.7284 107.669 27.7631 107.831 27.8324L107.606 28.3007C107.515 28.24 107.416 28.2053 107.299 28.2053C107.118 28.2053 106.92 28.3007 106.731 28.5002C106.541 28.6996 106.379 29.0465 106.261 29.5581L106 30.7375H105.495Z" fill="#919191"/>
<path d="M108.265 29.0031H110.024V28.8904C110.024 28.6389 109.952 28.4481 109.816 28.3094C109.681 28.1793 109.509 28.1099 109.293 28.1099C109.067 28.1099 108.869 28.188 108.67 28.3354C108.499 28.4828 108.355 28.7083 108.265 29.0031ZM109.807 29.7316L110.33 29.7836C110.258 30.0264 110.087 30.2519 109.825 30.4774C109.555 30.6942 109.239 30.8069 108.86 30.8069C108.625 30.8069 108.409 30.7549 108.219 30.6595C108.03 30.5641 107.886 30.4167 107.786 30.2172C107.687 30.0264 107.633 29.801 107.633 29.5581C107.633 29.2373 107.714 28.9251 107.877 28.6216C108.03 28.3181 108.228 28.0926 108.49 27.9452C108.743 27.7977 109.013 27.7284 109.302 27.7284C109.681 27.7284 109.97 27.8411 110.195 28.0579C110.421 28.2747 110.529 28.5695 110.529 28.9511C110.529 29.0985 110.52 29.246 110.493 29.3934H108.183C108.183 29.4541 108.174 29.5061 108.174 29.5495C108.174 29.827 108.246 30.0351 108.382 30.1825C108.517 30.3299 108.68 30.3993 108.878 30.3993C109.058 30.3993 109.23 30.3386 109.419 30.2259C109.573 30.1132 109.717 29.9484 109.807 29.7316Z" fill="#919191"/>
<path d="M113.181 29.2462C113.109 29.2722 113.028 29.2982 112.947 29.3069C112.856 29.3242 112.712 29.3329 112.523 29.3502C112.207 29.3762 111.981 29.4109 111.864 29.4456C111.729 29.489 111.638 29.5497 111.566 29.6364C111.503 29.7231 111.476 29.8185 111.476 29.9226C111.476 30.0613 111.53 30.1741 111.629 30.2695C111.729 30.3648 111.882 30.4082 112.062 30.4082C112.243 30.4082 112.405 30.3648 112.586 30.2781C112.748 30.1914 112.874 30.07 112.974 29.9139C113.055 29.7578 113.127 29.5323 113.181 29.2462ZM112.983 30.3735C112.802 30.5209 112.613 30.6337 112.45 30.7031C112.279 30.7724 112.089 30.8071 111.9 30.8071C111.602 30.8071 111.368 30.7291 111.196 30.5643C111.016 30.3995 110.935 30.2001 110.935 29.9486C110.935 29.7838 110.98 29.6364 111.043 29.515C111.124 29.3849 111.232 29.2895 111.368 29.2115C111.503 29.1334 111.656 29.0814 111.846 29.0467C111.972 29.0207 112.189 29.0033 112.532 28.9947C112.865 28.986 113.109 28.9513 113.253 28.8993C113.298 28.7605 113.316 28.6478 113.316 28.5611C113.316 28.4483 113.271 28.353 113.181 28.2836C113.055 28.1882 112.874 28.1448 112.64 28.1448C112.414 28.1448 112.234 28.1882 112.089 28.2836C111.936 28.379 111.837 28.509 111.774 28.6825L111.232 28.6391C111.341 28.3443 111.521 28.1188 111.747 27.9714C111.99 27.8153 112.297 27.7372 112.649 27.7372C113.037 27.7372 113.352 27.824 113.578 27.9974C113.749 28.1275 113.831 28.2922 113.831 28.5004C113.831 28.6565 113.813 28.8386 113.758 29.0467L113.587 29.7752C113.533 30.0093 113.506 30.2001 113.506 30.3388C113.506 30.4342 113.524 30.5643 113.569 30.7377H113.028C113.019 30.6423 112.992 30.5209 112.983 30.3735Z" fill="#919191"/>
<path d="M114.227 30.7375L114.886 27.7977H115.418L115.319 28.2834C115.508 28.0752 115.689 27.9278 115.851 27.8498C116.004 27.7717 116.176 27.7284 116.356 27.7284C116.546 27.7284 116.708 27.7804 116.843 27.8758C116.979 27.9712 117.06 28.1099 117.096 28.2834C117.258 28.1013 117.421 27.9625 117.601 27.8671C117.773 27.7804 117.953 27.7284 118.151 27.7284C118.413 27.7284 118.612 27.7891 118.738 27.9018C118.873 28.0145 118.945 28.1793 118.945 28.3961C118.945 28.4828 118.918 28.6389 118.873 28.847L118.449 30.7462H117.917L118.35 28.795C118.395 28.6389 118.413 28.5262 118.413 28.4568C118.413 28.3614 118.386 28.2834 118.314 28.2313C118.251 28.1706 118.16 28.1446 118.043 28.1446C117.89 28.1446 117.727 28.188 117.556 28.2834C117.394 28.3701 117.258 28.4915 117.177 28.6389C117.087 28.7863 117.006 29.0118 116.934 29.3153L116.618 30.7375H116.077L116.528 28.7517C116.555 28.6129 116.564 28.5175 116.564 28.4655C116.564 28.3701 116.537 28.292 116.474 28.2313C116.41 28.1706 116.32 28.1446 116.221 28.1446C116.068 28.1446 115.914 28.188 115.752 28.2834C115.58 28.3788 115.445 28.5002 115.346 28.6649C115.247 28.8297 115.156 29.0552 115.093 29.3587L114.777 30.7462L114.227 30.7375Z" fill="#919191"/>
<path d="M121.734 29.5235V29.6189C121.734 29.8704 121.797 30.0612 121.923 30.1913C122.049 30.3213 122.212 30.3907 122.401 30.3907C122.582 30.3907 122.753 30.33 122.906 30.2086C123.069 30.0872 123.195 29.8964 123.294 29.6363C123.393 29.3761 123.448 29.1333 123.448 28.9165C123.448 28.6737 123.384 28.4742 123.258 28.3441C123.132 28.2054 122.969 28.136 122.789 28.136C122.6 28.136 122.419 28.2054 122.257 28.3441C122.094 28.4829 121.959 28.6997 121.851 28.9859C121.779 29.2027 121.734 29.3848 121.734 29.5235ZM120.94 30.7376L121.842 26.6791H122.383L122.058 28.1273C122.23 27.9799 122.383 27.8759 122.518 27.8152C122.663 27.7544 122.807 27.7284 122.96 27.7284C123.249 27.7284 123.493 27.8325 123.691 28.0406C123.881 28.2488 123.989 28.5436 123.989 28.9338C123.989 29.194 123.953 29.4368 123.863 29.6449C123.781 29.8617 123.691 30.0438 123.565 30.1913C123.457 30.3387 123.33 30.4514 123.213 30.5468C123.087 30.6335 122.96 30.7029 122.834 30.7463C122.699 30.7896 122.572 30.807 122.455 30.807C122.239 30.807 122.067 30.7549 121.905 30.6509C121.752 30.5468 121.616 30.3907 121.535 30.1826L121.418 30.7376H120.94Z" fill="#919191"/>
<path d="M125.054 29.0031H126.813C126.822 28.9511 126.822 28.9164 126.822 28.8904C126.822 28.6389 126.75 28.4481 126.615 28.3094C126.479 28.1793 126.308 28.1099 126.101 28.1099C125.875 28.1099 125.668 28.188 125.478 28.3354C125.289 28.4828 125.144 28.7083 125.054 29.0031ZM126.615 29.7316L127.138 29.7836C127.066 30.0264 126.894 30.2519 126.615 30.4774C126.353 30.6942 126.037 30.8069 125.658 30.8069C125.424 30.8069 125.207 30.7549 125.018 30.6595C124.829 30.5641 124.684 30.4167 124.576 30.2172C124.477 30.0264 124.423 29.801 124.423 29.5581C124.423 29.2373 124.504 28.9251 124.657 28.6216C124.82 28.3181 125.027 28.0926 125.28 27.9452C125.523 27.7977 125.794 27.7284 126.092 27.7284C126.47 27.7284 126.768 27.8411 126.985 28.0579C127.21 28.2747 127.318 28.5695 127.318 28.9511C127.318 29.0985 127.3 29.246 127.282 29.3934H124.973C124.964 29.4541 124.964 29.5061 124.964 29.5495C124.964 29.827 125.027 30.0351 125.171 30.1825C125.307 30.3299 125.469 30.3993 125.658 30.3993C125.839 30.3993 126.028 30.3386 126.2 30.2259C126.38 30.1132 126.506 29.9484 126.615 29.7316Z" fill="#919191"/>
<path d="M128.31 29.4367C128.31 29.6362 128.328 29.7923 128.373 29.8877C128.436 30.0264 128.517 30.1392 128.626 30.2172C128.725 30.2953 128.851 30.3299 128.987 30.3299C129.167 30.3299 129.338 30.2692 129.519 30.1565C129.69 30.0438 129.835 29.8617 129.934 29.6189C130.042 29.376 130.096 29.1419 130.096 28.9251C130.096 28.6823 130.024 28.4915 129.88 28.3441C129.735 28.2053 129.555 28.1273 129.347 28.1273C129.212 28.1273 129.095 28.162 128.968 28.2227C128.842 28.292 128.734 28.3874 128.626 28.5262C128.526 28.6563 128.445 28.821 128.391 29.0031C128.328 29.1939 128.31 29.3413 128.31 29.4367ZM127.642 31.0064L128.184 31.0497C128.184 31.1625 128.193 31.2492 128.229 31.3099C128.274 31.3706 128.319 31.4139 128.391 31.44C128.49 31.4833 128.617 31.5007 128.77 31.5007C129.095 31.5007 129.329 31.4226 129.465 31.2665C129.564 31.1625 129.645 30.9283 129.726 30.5814L129.78 30.3386C129.51 30.6075 129.212 30.7375 128.896 30.7375C128.581 30.7375 128.319 30.6248 128.102 30.408C127.886 30.1912 127.778 29.879 127.778 29.4801C127.778 29.1506 127.868 28.847 128.03 28.5695C128.202 28.292 128.4 28.0839 128.635 27.9452C128.869 27.8064 129.104 27.7284 129.356 27.7284C129.762 27.7284 130.078 27.9105 130.304 28.2747L130.403 27.7891H130.89L130.259 30.6335C130.195 30.9457 130.105 31.1885 129.997 31.3619C129.889 31.5353 129.726 31.6741 129.528 31.7695C129.32 31.8649 129.104 31.9169 128.833 31.9169C128.581 31.9169 128.364 31.8909 128.184 31.8215C128.003 31.7608 127.868 31.6741 127.778 31.5527C127.687 31.4313 127.642 31.3012 127.642 31.1451C127.624 31.1018 127.624 31.0584 127.642 31.0064Z" fill="#919191"/>
<path d="M131.792 27.2428L131.919 26.6791H132.46L132.325 27.2428H131.792ZM131.007 30.7376L131.666 27.7978H132.198L131.549 30.7376H131.007Z" fill="#919191"/>
<path d="M132.37 30.7375L133.028 27.7977H133.507L133.398 28.3094C133.615 28.1099 133.804 27.9625 133.985 27.8671C134.165 27.7717 134.355 27.7284 134.544 27.7284C134.797 27.7284 135.004 27.7977 135.148 27.9191C135.293 28.0492 135.365 28.2227 135.365 28.4395C135.365 28.5435 135.347 28.717 135.293 28.9511L134.896 30.7375H134.355L134.77 28.8731C134.815 28.691 134.833 28.5609 134.833 28.4742C134.833 28.3788 134.806 28.3007 134.733 28.2313C134.661 28.1706 134.553 28.1359 134.418 28.1359C134.147 28.1359 133.894 28.2313 133.687 28.4135C133.47 28.5956 133.317 28.9164 133.218 29.3674L132.911 30.7375H132.37Z" fill="#919191"/>
<path d="M135.788 29.7317L136.321 29.7057C136.321 29.8531 136.339 29.9745 136.393 30.0699C136.447 30.174 136.528 30.252 136.655 30.3214C136.781 30.3908 136.925 30.4168 137.097 30.4168C137.331 30.4168 137.512 30.3734 137.629 30.2867C137.755 30.2 137.809 30.0959 137.809 29.9745C137.809 29.8878 137.773 29.8011 137.701 29.723C137.629 29.645 137.457 29.5496 137.169 29.4368C136.88 29.3241 136.709 29.2461 136.627 29.194C136.492 29.116 136.393 29.0293 136.33 28.9252C136.258 28.8211 136.231 28.7084 136.231 28.5696C136.231 28.3355 136.321 28.136 136.528 27.9713C136.718 27.8065 136.997 27.7198 137.349 27.7198C137.746 27.7198 138.044 27.8065 138.242 27.98C138.45 28.1534 138.558 28.3789 138.567 28.6564L138.035 28.6911C138.035 28.5089 137.963 28.3702 137.845 28.2748C137.71 28.1707 137.539 28.1187 137.304 28.1187C137.124 28.1187 136.979 28.1621 136.88 28.2401C136.781 28.3182 136.727 28.4049 136.727 28.5003C136.727 28.5957 136.763 28.6737 136.862 28.7431C136.925 28.7951 137.079 28.8645 137.322 28.9686C137.728 29.1333 137.981 29.2634 138.098 29.3588C138.26 29.5149 138.351 29.697 138.351 29.9138C138.351 30.0612 138.296 30.2 138.206 30.3387C138.107 30.4775 137.963 30.5902 137.773 30.6769C137.566 30.7637 137.349 30.807 137.079 30.807C136.709 30.807 136.411 30.7203 136.149 30.5555C135.888 30.3821 135.77 30.1133 135.788 29.7317Z" fill="#919191"/>
<path d="M80.7085 26.2484C76.7175 26.2484 74.3857 23.8642 74.2063 20.4998L74.1913 20.3243H77.4948L77.5097 20.4559C77.6442 22.065 78.6756 23.3229 80.6786 23.3229C82.8908 23.3229 84.0866 22.0357 84.0866 19.6221V4.78977H87.4349V19.6514C87.4349 23.8056 84.9387 26.2484 80.7085 26.2484Z" fill="#BC2228"/>
<path d="M97.8235 26.2046C93.3093 26.2046 90.3646 23.1474 90.3646 18.2033V18.174C90.3646 13.2591 93.3392 10.2166 97.8085 10.2166C102.293 10.2166 105.282 13.2445 105.282 18.174V18.2033C105.282 23.162 102.323 26.2046 97.8235 26.2046ZM97.8384 23.557C100.365 23.557 101.979 21.5969 101.979 18.2033V18.174C101.979 14.8097 100.335 12.8642 97.8085 12.8642C95.3272 12.8642 93.6681 14.8097 93.6681 18.174V18.2033C93.6681 21.6115 95.3123 23.557 97.8384 23.557Z" fill="#BC2228"/>
<path d="M116.134 26.2046C113.877 26.2046 112.128 25.0929 111.202 23.2937H111.127V25.8974H107.898V4.78977H111.127V13.1275H111.202C112.143 11.3137 113.937 10.2166 116.164 10.2166C120.11 10.2166 122.711 13.2884 122.711 18.1886V18.2033C122.711 23.1035 120.125 26.2046 116.134 26.2046ZM115.282 23.4838C117.823 23.4838 119.408 21.4799 119.408 18.2033V18.1886C119.408 14.9413 117.823 12.9227 115.282 12.9227C112.846 12.9227 111.112 14.9998 111.112 18.1886V18.2033C111.112 21.4067 112.831 23.4838 115.282 23.4838Z" fill="#BC2228"/>
<path d="M131.097 26.2046C127.166 26.2046 124.864 24.303 124.535 21.4945L124.52 21.3628H127.719L127.749 21.5091C128.048 22.928 129.124 23.7618 131.112 23.7618C133.055 23.7618 134.221 22.9719 134.221 21.7285V21.7139C134.221 20.7192 133.653 20.1487 131.964 19.7538L129.393 19.1833C126.403 18.5105 124.924 17.1062 124.924 14.8682V14.8536C124.924 12.1036 127.375 10.2166 130.992 10.2166C134.714 10.2166 136.956 12.2498 137.121 14.8682L137.136 15.0437H134.101L134.086 14.9413C133.892 13.5956 132.816 12.6594 130.992 12.6594C129.258 12.6594 128.167 13.4639 128.167 14.6926V14.7073C128.167 15.6581 128.81 16.3017 130.499 16.6966L133.055 17.2671C136.269 17.9985 137.494 19.2418 137.494 21.4506V21.4652C137.494 24.2737 134.804 26.2046 131.097 26.2046Z" fill="#BC2228"/>
<defs>
<clipPath id="clip0_0_752">
<rect width="70.6047" height="32.093" fill="white" transform="scale(1.00296)"/>
</clipPath>
</defs>
</svg>
