<svg width="585" height="423" viewBox="0 0 585 423" fill="none" xmlns="http://www.w3.org/2000/svg">
<g clip-path="url(#clip0_45_35880)">
<path d="M345.096 229.172L210.335 141.237L379.101 99.4922L345.096 229.172Z" stroke="#DDDDDD" stroke-width="0.7021" stroke-miterlimit="10" stroke-linecap="round" stroke-linejoin="round"/>
<path d="M452.789 217.158L478.437 350.351L368.494 312.583L452.789 217.158Z" stroke="#DDDDDD" stroke-width="0.7021" stroke-miterlimit="10" stroke-linecap="round" stroke-linejoin="round"/>
<path d="M127.89 215.333L210.336 141.237L228.257 301.214L127.89 215.333Z" stroke="#DDDDDD" stroke-width="0.3511" stroke-miterlimit="10" stroke-linecap="round" stroke-linejoin="round"/>
<path d="M228.257 301.214L71.2799 397.565L96.1169 174.631L228.257 301.214Z" stroke="#DDDDDD" stroke-width="0.7021" stroke-miterlimit="10" stroke-linecap="round" stroke-linejoin="round"/>
<path d="M368.494 312.583L228.257 301.214L345.097 229.172L368.494 312.583Z" stroke="#DDDDDD" stroke-width="0.7021" stroke-miterlimit="10" stroke-linecap="round" stroke-linejoin="round"/>
<path d="M118.423 368.623L287.546 418.118L228.256 301.215L118.423 368.623Z" stroke="#DDDDDD" stroke-width="0.7021" stroke-miterlimit="10" stroke-linecap="round" stroke-linejoin="round"/>
<path d="M368.493 312.583L284.587 230.41L392.5 180.804L368.493 312.583Z" stroke="#DDDDDD" stroke-width="0.7021" stroke-miterlimit="10" stroke-linecap="round" stroke-linejoin="round"/>
<path d="M284.588 230.41L228.257 301.214L368.494 312.583L284.588 230.41Z" stroke="#DDDDDD" stroke-width="0.7021" stroke-miterlimit="10" stroke-linecap="round" stroke-linejoin="round"/>
<path d="M284.587 230.41L96.1166 174.631H261.509L284.587 230.41Z" stroke="#DDDDDD" stroke-width="0.3511" stroke-miterlimit="10" stroke-linecap="round" stroke-linejoin="round"/>
<path d="M96.2462 9.53009L0.226572 200.849L96.1164 174.631L96.2462 9.53009Z" stroke="#DDDDDD" stroke-width="0.7021" stroke-miterlimit="10" stroke-linecap="round" stroke-linejoin="round"/>
<path d="M228.257 301.214L0.227062 200.849L118.424 368.623L228.257 301.214Z" stroke="#DDDDDD" stroke-width="0.7021" stroke-miterlimit="10" stroke-linecap="round" stroke-linejoin="round"/>
<path d="M452.958 217.354L345.097 229.172L392.5 180.804L452.958 217.354Z" stroke="#DDDDDD" stroke-width="0.7021" stroke-miterlimit="10" stroke-linecap="round" stroke-linejoin="round"/>
<path d="M283.972 230.436L127.89 215.333L171.264 307.127L283.972 230.436Z" stroke="#DDDDDD" stroke-width="0.3511" stroke-miterlimit="10" stroke-linecap="round" stroke-linejoin="round"/>
<path d="M368.494 312.583L404.543 422.883L287.547 418.118L368.494 312.583Z" stroke="#DDDDDD" stroke-width="0.3511" stroke-miterlimit="10" stroke-linecap="round" stroke-linejoin="round"/>
<path d="M174.267 367.625L287.546 418.118L228.256 301.215L174.267 367.625Z" stroke="#DDDDDD" stroke-width="0.3511" stroke-miterlimit="10" stroke-linecap="round" stroke-linejoin="round"/>
<path d="M458.654 343.82L394.517 389.097L452.957 217.354" stroke="#DDDDDD" stroke-width="0.5" stroke-miterlimit="10" stroke-linecap="round" stroke-linejoin="round"/>
<path d="M307.186 252.547L287.546 418.118" stroke="#DDDDDD" stroke-width="0.3511" stroke-miterlimit="10" stroke-linecap="round" stroke-linejoin="round"/>
<path d="M174.268 367.625L368.494 312.583" stroke="#DDDDDD" stroke-width="0.3511" stroke-miterlimit="10" stroke-linecap="round" stroke-linejoin="round"/>
<path d="M392.5 180.804L379.102 99.4923L408.461 72.6164L394.187 20.3378" stroke="#DDDDDD" stroke-width="0.3511" stroke-miterlimit="10" stroke-linecap="round" stroke-linejoin="round"/>
<path d="M298.374 119.465L283.97 230.436" stroke="#DDDDDD" stroke-width="0.3511" stroke-miterlimit="10" stroke-linecap="round" stroke-linejoin="round"/>
<path d="M478.437 350.351L345.097 229.172L298.375 119.465L194.537 62.8516L210.336 141.237" stroke="#DDDDDD" stroke-width="0.3511" stroke-miterlimit="10" stroke-linecap="round" stroke-linejoin="round"/>
<path d="M394.006 101.937L409.24 174.292L460.115 203.293L394.006 101.937Z" stroke="#DDDDDD" stroke-width="0.7021" stroke-miterlimit="10" stroke-linecap="round" stroke-linejoin="round"/>
<path d="M496.007 289.533L478.437 221.226L547.79 246.694L500.867 328.038" stroke="#DDDDDD" stroke-width="0.7021" stroke-miterlimit="10" stroke-linecap="round" stroke-linejoin="round"/>
<path d="M553.221 234.738L480.52 204.988L439.32 132.808L553.221 234.738Z" stroke="#DDDDDD" stroke-width="0.3511" stroke-miterlimit="10" stroke-linecap="round" stroke-linejoin="round"/>
<path d="M371.199 86.7159L300.069 105.189L202.985 53.0934L371.199 86.7159Z" stroke="#DDDDDD" stroke-width="0.3511" stroke-miterlimit="10" stroke-linecap="round" stroke-linejoin="round"/>
<path d="M374.807 22.7758L386.051 67.193L307.187 47.129L374.807 22.7758Z" stroke="#DDDDDD" stroke-width="0.3511" stroke-miterlimit="10" stroke-linecap="round" stroke-linejoin="round"/>
<path d="M449.564 217.406C449.564 218.99 450.842 220.274 452.418 220.274C453.995 220.274 455.273 218.99 455.273 217.406C455.273 215.822 453.995 214.538 452.418 214.538C450.842 214.544 449.564 215.822 449.564 217.406Z" fill="#CCCCCC"/>
<path d="M365.639 312.583C365.639 314.167 366.917 315.451 368.494 315.451C370.07 315.451 371.348 314.167 371.348 312.583C371.348 310.999 370.07 309.715 368.494 309.715C366.917 309.721 365.639 311.005 365.639 312.583Z" fill="#CCCCCC"/>
<path d="M281.123 230.436C281.123 232.02 282.401 233.304 283.978 233.304C285.555 233.304 286.833 232.02 286.833 230.436C286.833 228.852 285.555 227.568 283.978 227.568C282.395 227.568 281.123 228.852 281.123 230.436Z" fill="#CCCCCC"/>
<path d="M406.385 174.292C406.385 175.876 407.663 177.16 409.24 177.16C410.816 177.16 412.094 175.876 412.094 174.292C412.094 172.708 410.816 171.424 409.24 171.424C407.663 171.431 406.385 172.715 406.385 174.292Z" fill="#CCCCCC"/>
<path d="M544.942 246.693C544.942 248.277 546.22 249.562 547.796 249.562C549.373 249.562 550.651 248.277 550.651 246.693C550.651 245.109 549.373 243.825 547.796 243.825C546.213 243.825 544.942 245.109 544.942 246.693Z" fill="#CCCCCC"/>
<path d="M225.402 301.214C225.402 302.798 226.68 304.083 228.257 304.083C229.833 304.083 231.112 302.798 231.112 301.214C231.112 299.63 229.833 298.346 228.257 298.346C226.68 298.346 225.402 299.63 225.402 301.214Z" fill="#CCCCCC"/>
<path d="M376.254 99.4922C376.254 101.076 377.532 102.36 379.109 102.36C380.686 102.36 381.964 101.076 381.964 99.4922C381.964 97.9082 380.686 96.6241 379.109 96.6241C377.532 96.6241 376.254 97.9148 376.254 99.4922Z" fill="#CCCCCC"/>
<path d="M342.242 229.172C342.242 230.756 343.52 232.04 345.097 232.04C346.673 232.04 347.952 230.756 347.952 229.172C347.952 227.588 346.673 226.304 345.097 226.304C343.52 226.304 342.242 227.588 342.242 229.172Z" fill="#CCCCCC"/>
<path d="M207.488 141.237C207.488 142.821 208.766 144.105 210.343 144.105C211.919 144.105 213.197 142.821 213.197 141.237C213.197 139.653 211.919 138.369 210.343 138.369C208.759 138.369 207.488 139.653 207.488 141.237Z" fill="#CCCCCC"/>
<path d="M475.582 350.351C475.582 351.935 476.86 353.219 478.437 353.219C480.014 353.219 481.292 351.935 481.292 350.351C481.292 348.767 480.014 347.483 478.437 347.483C476.86 347.483 475.582 348.767 475.582 350.351Z" fill="#CCCCCC"/>
<path d="M480.52 206.422C479.731 206.422 479.092 205.78 479.092 204.988C479.092 204.196 479.731 203.554 480.52 203.554C481.308 203.554 481.947 204.196 481.947 204.988C481.947 205.78 481.308 206.422 480.52 206.422Z" fill="#CCCCCC"/>
<path d="M305.759 47.1289C305.759 47.9176 306.395 48.563 307.186 48.563C307.971 48.563 308.614 47.9242 308.614 47.1289C308.614 46.3402 307.978 45.6948 307.186 45.6948C306.401 45.6948 305.759 46.3336 305.759 47.1289Z" fill="#CCCCCC"/>
<path d="M202.984 54.5275C202.196 54.5275 201.557 53.8854 201.557 53.0934C201.557 52.3014 202.196 51.6593 202.984 51.6593C203.773 51.6593 204.412 52.3014 204.412 53.0934C204.412 53.8854 203.773 54.5275 202.984 54.5275Z" fill="#CCCCCC"/>
<path d="M394.186 20.3378C393.398 20.3378 392.759 19.6957 392.759 18.9037C392.759 18.1117 393.398 17.4696 394.186 17.4696C394.975 17.4696 395.614 18.1117 395.614 18.9037C395.614 19.6957 394.975 20.3378 394.186 20.3378Z" fill="#CCCCCC"/>
<path d="M392.733 102.36C392.733 103.149 393.369 103.794 394.161 103.794C394.946 103.794 395.588 103.156 395.588 102.36C395.588 101.565 394.952 100.926 394.161 100.926C393.369 100.926 392.733 101.572 392.733 102.36Z" fill="#CCCCCC"/>
<path d="M307.186 253.981C306.398 253.981 305.759 253.339 305.759 252.547C305.759 251.755 306.398 251.113 307.186 251.113C307.974 251.113 308.614 251.755 308.614 252.547C308.614 253.339 307.974 253.981 307.186 253.981Z" fill="#CCCCCC" stroke="#DDDDDD" stroke-miterlimit="10"/>
<path d="M399.404 279.443C398.616 279.443 397.977 278.8 397.977 278.008C397.977 277.216 398.616 276.574 399.404 276.574C400.193 276.574 400.832 277.216 400.832 278.008C400.832 278.8 400.193 279.443 399.404 279.443Z" fill="#CCCCCC" stroke="#DDDDDD" stroke-miterlimit="10"/>
<path d="M296.137 332.269C296.137 333.057 296.772 333.703 297.564 333.703C298.356 333.703 298.991 333.064 298.991 332.269C298.991 331.48 298.356 330.835 297.564 330.835C296.772 330.835 296.137 331.48 296.137 332.269Z" fill="#CCCCCC"/>
<path d="M298.374 120.899C297.586 120.899 296.947 120.257 296.947 119.465C296.947 118.673 297.586 118.031 298.374 118.031C299.163 118.031 299.802 118.673 299.802 119.465C299.802 120.257 299.163 120.899 298.374 120.899Z" fill="#CCCCCC" stroke="#DDDDDD" stroke-miterlimit="10"/>
<path d="M336.234 296.475C334.982 296.475 334.982 294.52 336.234 294.52C337.486 294.52 337.486 296.475 336.234 296.475Z" fill="#DDDDDD"/>
<path d="M306.544 174.462C305.292 174.462 305.292 172.506 306.544 172.506C307.796 172.506 307.796 174.462 306.544 174.462Z" fill="#DDDDDD"/>
<path d="M348.108 134.875C346.856 134.875 346.856 132.919 348.108 132.919C349.36 132.919 349.36 134.875 348.108 134.875Z" fill="#DDDDDD"/>
<path d="M446.885 298.105C445.633 298.105 445.633 296.15 446.885 296.15C448.137 296.15 448.144 298.105 446.885 298.105Z" fill="#DDDDDD"/>
<path d="M533.788 353.962C532.536 353.962 532.536 352.007 533.788 352.007C535.04 352.007 535.047 353.962 533.788 353.962Z" fill="#DDDDDD"/>
<path d="M562.402 321.422C561.15 321.422 561.15 319.466 562.402 319.466C563.654 319.466 563.654 321.422 562.402 321.422Z" fill="#DDDDDD"/>
<path d="M566.716 363.72C565.463 363.72 565.463 361.765 566.716 361.765C567.968 361.765 567.974 363.72 566.716 363.72Z" fill="#DDDDDD"/>
<path d="M430.69 108.299C429.438 108.299 429.438 106.343 430.69 106.343C431.949 106.343 431.949 108.299 430.69 108.299Z" fill="#DDDDDD"/>
<path d="M500.321 142.215C499.069 142.215 499.069 140.259 500.321 140.259C501.573 140.259 501.58 142.215 500.321 142.215Z" fill="#DDDDDD"/>
<path d="M254.722 24.2424C253.469 24.2424 253.469 22.2869 254.722 22.2869C255.974 22.2869 255.98 24.2424 254.722 24.2424Z" fill="#DDDDDD"/>
<path d="M260.121 323.593C258.869 323.593 258.869 321.637 260.121 321.637C261.373 321.637 261.379 323.593 260.121 323.593Z" fill="#DDDDDD"/>
<path d="M209.383 251.465C208.13 251.465 208.13 249.51 209.383 249.51C210.635 249.51 210.641 251.465 209.383 251.465Z" fill="#DDDDDD"/>
<path d="M320.04 353.415C318.788 353.415 318.788 351.459 320.04 351.459C321.292 351.459 321.292 353.415 320.04 353.415Z" fill="#DDDDDD"/>
<path d="M419.9 238.448C418.647 238.448 418.647 236.492 419.9 236.492C421.152 236.492 421.152 238.448 419.9 238.448Z" fill="#DDDDDD"/>
<path d="M233.675 115.893C232.423 115.893 232.423 113.937 233.675 113.937C234.927 113.937 234.927 115.893 233.675 115.893Z" fill="#DDDDDD"/>
<path d="M227.738 372.397C226.486 372.397 226.486 370.441 227.738 370.441C228.99 370.441 228.99 372.397 227.738 372.397Z" fill="#DDDDDD"/>
<path d="M580.75 222.073C578.246 222.073 578.239 218.162 580.75 218.162C583.255 218.162 583.261 222.073 580.75 222.073Z" fill="#DDDDDD"/>
<path d="M500.322 367.41C497.817 367.41 497.811 363.499 500.322 363.499C502.826 363.499 502.833 367.41 500.322 367.41Z" fill="#DDDDDD"/>
<path d="M447.111 80.5364C444.607 80.5364 444.6 76.6252 447.111 76.6252C449.616 76.6252 449.622 80.5364 447.111 80.5364Z" fill="#DDDDDD"/>
<path d="M243.387 247.019C240.882 247.019 240.876 243.108 243.387 243.108C245.891 243.108 245.898 247.019 243.387 247.019Z" fill="#DDDDDD"/>
<path d="M221.8 27.9319C219.296 27.9319 219.289 24.0208 221.8 24.0208C224.305 24.0208 224.305 27.9319 221.8 27.9319Z" fill="#DDDDDD"/>
<path d="M305.466 90.8421C302.962 90.8421 302.955 86.931 305.466 86.931C307.97 86.931 307.97 90.8421 305.466 90.8421Z" fill="#DDDDDD"/>
<path d="M427.453 322.941C424.948 322.941 424.942 319.03 427.453 319.03C429.957 319.03 429.964 322.941 427.453 322.941Z" fill="#DDDDDD"/>
<path d="M425.299 268.87C424.669 268.87 424.669 267.892 425.299 267.892C425.921 267.892 425.921 268.87 425.299 268.87Z" fill="#DDDDDD"/>
<path d="M279.553 362.15C278.923 362.15 278.923 361.172 279.553 361.172C280.182 361.172 280.182 362.15 279.553 362.15Z" fill="#DDDDDD"/>
<path d="M292.509 291.104C291.88 291.104 291.88 290.126 292.509 290.126C293.139 290.126 293.139 291.104 292.509 291.104Z" fill="#DDDDDD"/>
<path d="M530.012 318.762C529.382 318.762 529.382 317.785 530.012 317.785C530.641 317.785 530.641 318.762 530.012 318.762Z" fill="#DDDDDD"/>
<path d="M503.567 343.709C502.937 343.709 502.937 342.731 503.567 342.731C504.19 342.731 504.19 343.709 503.567 343.709Z" fill="#DDDDDD"/>
<path d="M551.605 333.403C550.976 333.403 550.976 332.425 551.605 332.425C552.228 332.425 552.228 333.403 551.605 333.403Z" fill="#DDDDDD"/>
<path d="M505.181 265.617C504.552 265.617 504.552 264.639 505.181 264.639C505.811 264.639 505.811 265.617 505.181 265.617Z" fill="#DDDDDD"/>
<path d="M499.784 300.328C499.154 300.328 499.154 299.35 499.784 299.35C500.413 299.35 500.413 300.328 499.784 300.328Z" fill="#DDDDDD"/>
<path d="M471.714 290.563C471.085 290.563 471.085 289.585 471.714 289.585C472.344 289.585 472.344 290.563 471.714 290.563Z" fill="#DDDDDD"/>
<path d="M476.575 111.063C475.946 111.063 475.946 110.085 476.575 110.085C477.198 110.085 477.204 111.063 476.575 111.063Z" fill="#DDDDDD"/>
<path d="M537.032 133.545C536.091 133.545 536.091 132.078 537.032 132.078C537.966 132.078 537.973 133.545 537.032 133.545Z" fill="#DDDDDD"/>
<path d="M580.75 157.703C580.121 157.703 580.121 156.725 580.75 156.725C581.379 156.725 581.379 157.703 580.75 157.703Z" fill="#DDDDDD"/>
<path d="M515.977 179.096C515.037 179.096 515.037 177.63 515.977 177.63C516.918 177.63 516.918 179.096 515.977 179.096Z" fill="#DDDDDD"/>
<path d="M480.52 89.3755C479.89 89.3755 479.89 88.3977 480.52 88.3977C481.149 88.3977 481.149 89.3755 480.52 89.3755Z" fill="#DDDDDD"/>
<path d="M544.942 157.703C544.312 157.703 544.312 156.725 544.942 156.725C545.565 156.725 545.565 157.703 544.942 157.703Z" fill="#DDDDDD"/>
<path d="M562.94 184.272C562.31 184.272 562.31 183.294 562.94 183.294C563.562 183.294 563.562 184.272 562.94 184.272Z" fill="#DDDDDD"/>
<path d="M503.567 207.595C502.937 207.595 502.937 206.618 503.567 206.618C504.19 206.618 504.19 207.595 503.567 207.595Z" fill="#DDDDDD"/>
<path d="M571.575 283.517C570.946 283.517 570.946 282.539 571.575 282.539C572.198 282.539 572.204 283.517 571.575 283.517Z" fill="#DDDDDD"/>
<path d="M458.764 122.992C458.135 122.992 458.135 122.014 458.764 122.014C459.387 122.014 459.387 122.992 458.764 122.992Z" fill="#DDDDDD"/>
<path d="M438.249 35.3891C437.308 35.3891 437.308 33.9224 438.249 33.9224C439.189 33.9224 439.189 35.3891 438.249 35.3891Z" fill="#DDDDDD"/>
<path d="M423.677 45.4471C423.047 45.4471 423.047 44.4693 423.677 44.4693C424.3 44.4693 424.306 45.4471 423.677 45.4471Z" fill="#DDDDDD"/>
<path d="M404.782 2.05987C404.153 2.05987 404.153 1.08209 404.782 1.08209C405.411 1.08209 405.411 2.05987 404.782 2.05987Z" fill="#DDDDDD"/>
<path d="M351.884 0.977779C351.254 0.977779 351.254 0 351.884 0C352.513 0 352.513 0.977779 351.884 0.977779Z" fill="#DDDDDD"/>
<path d="M292.509 38.9416C291.88 38.9416 291.88 37.9639 292.509 37.9639C293.139 37.9639 293.139 38.9416 292.509 38.9416Z" fill="#DDDDDD"/>
<path d="M349.724 75.2693C349.094 75.2693 349.094 74.2916 349.724 74.2916C350.353 74.2916 350.353 75.2693 349.724 75.2693Z" fill="#DDDDDD"/>
<path d="M280.098 79.0696C279.469 79.0696 279.469 78.0919 280.098 78.0919C280.721 78.0919 280.721 79.0696 280.098 79.0696Z" fill="#DDDDDD"/>
<path d="M271.455 9.65393C270.826 9.65393 270.826 8.67615 271.455 8.67615C272.085 8.67615 272.085 9.65393 271.455 9.65393Z" fill="#DDDDDD"/>
<path d="M210.466 105.098C209.837 105.098 209.837 104.12 210.466 104.12C211.089 104.12 211.089 105.098 210.466 105.098Z" fill="#DDDDDD"/>
<path d="M322.2 137.098C321.571 137.098 321.571 136.12 322.2 136.12C322.823 136.12 322.823 137.098 322.2 137.098Z" fill="#DDDDDD"/>
<path d="M267.679 153.361C267.049 153.361 267.049 152.384 267.679 152.384C268.308 152.384 268.308 153.361 267.679 153.361Z" fill="#DDDDDD"/>
<path d="M242.848 195.119C242.219 195.119 242.219 194.141 242.848 194.141C243.478 194.141 243.478 195.119 242.848 195.119Z" fill="#DDDDDD"/>
<path d="M272 214.101C271.37 214.101 271.37 213.123 272 213.123C272.623 213.123 272.623 214.101 272 214.101Z" fill="#DDDDDD"/>
<path d="M375.098 344.25C374.469 344.25 374.469 343.272 375.098 343.272C375.721 343.272 375.721 344.25 375.098 344.25Z" fill="#DDDDDD"/>
<path d="M397.223 333.403C396.593 333.403 396.593 332.425 397.223 332.425C397.852 332.425 397.852 333.403 397.223 333.403Z" fill="#DDDDDD"/>
<path d="M396.685 292.734C396.056 292.734 396.056 291.756 396.685 291.756C397.314 291.756 397.314 292.734 396.685 292.734Z" fill="#DDDDDD"/>
<path d="M369.701 237.418C369.071 237.418 369.071 236.44 369.701 236.44C370.324 236.44 370.324 237.418 369.701 237.418Z" fill="#DDDDDD"/>
<path d="M374.015 174.514C373.385 174.514 373.385 173.536 374.015 173.536C374.644 173.536 374.644 174.514 374.015 174.514Z" fill="#DDDDDD"/>
<path d="M399.922 203.254C399.293 203.254 399.293 202.276 399.922 202.276C400.552 202.276 400.552 203.254 399.922 203.254Z" fill="#DDDDDD"/>
<path d="M555.919 291.104C555.29 291.104 555.29 290.126 555.919 290.126C556.549 290.126 556.549 291.104 555.919 291.104Z" fill="#DDDDDD"/>
<path d="M584.533 338.826C583.903 338.826 583.903 337.849 584.533 337.849C585.156 337.849 585.156 338.826 584.533 338.826Z" fill="#DDDDDD"/>
<path d="M522.109 378.126C522.291 377.944 522.466 377.768 522.648 377.585C522.693 377.54 522.745 377.507 522.804 377.481C522.862 377.449 522.927 377.436 522.992 377.442C523.057 377.442 523.122 377.455 523.18 377.481C523.238 377.501 523.29 377.533 523.336 377.585C523.42 377.677 523.485 377.801 523.478 377.931C523.472 378.061 523.427 378.185 523.336 378.276C523.154 378.459 522.979 378.635 522.797 378.817C522.752 378.863 522.7 378.896 522.641 378.922C522.583 378.954 522.518 378.967 522.453 378.961C522.388 378.961 522.324 378.948 522.265 378.922C522.207 378.902 522.155 378.87 522.109 378.817C522.025 378.726 521.96 378.602 521.967 378.472C521.973 378.342 522.019 378.218 522.109 378.126Z" fill="#DDDDDD"/>
</g>
<defs>
<clipPath id="clip0_45_35880">
<rect width="585" height="423" fill="white" transform="matrix(-1 0 0 1 585 0)"/>
</clipPath>
</defs>
</svg>
